<?xml version="1.0" encoding="UTF-8" standalone="no"?>
<!-- Created with Inkscape (http://www.inkscape.org/) -->

<svg
   xmlns:dc="http://purl.org/dc/elements/1.1/"
   xmlns:cc="http://creativecommons.org/ns#"
   xmlns:rdf="http://www.w3.org/1999/02/22-rdf-syntax-ns#"
   xmlns:svg="http://www.w3.org/2000/svg"
   xmlns="http://www.w3.org/2000/svg"
   xmlns:sodipodi="http://sodipodi.sourceforge.net/DTD/sodipodi-0.dtd"
   xmlns:inkscape="http://www.inkscape.org/namespaces/inkscape"
   width="45mm"
   height="45mm"
   viewBox="0 0 45 45"
   version="1.1"
   id="svg2965"
   inkscape:version="0.92.3 (2405546, 2018-03-11)"
   sodipodi:docname="g0.svg">
  <defs
     id="defs2959" />
  <sodipodi:namedview
     id="base"
     pagecolor="#ffffff"
     bordercolor="#666666"
     borderopacity="1.0"
     inkscape:pageopacity="0.0"
     inkscape:pageshadow="2"
     inkscape:zoom="1.979899"
     inkscape:cx="67.50742"
     inkscape:cy="169.10821"
     inkscape:document-units="mm"
     inkscape:current-layer="layer1"
     showgrid="false"
     units="mm"
     width="50mm"
     inkscape:window-width="1920"
     inkscape:window-height="1024"
     inkscape:window-x="0"
     inkscape:window-y="0"
     inkscape:window-maximized="1" />
  <metadata
     id="metadata2962">
    <rdf:RDF>
      <cc:Work
         rdf:about="">
        <dc:format>image/svg+xml</dc:format>
        <dc:type
           rdf:resource="http://purl.org/dc/dcmitype/StillImage" />
        <dc:title></dc:title>
      </cc:Work>
    </rdf:RDF>
  </metadata>
  <g
     inkscape:label="Layer 1"
     inkscape:groupmode="layer"
     id="layer1"
     transform="translate(0,-252)">
    <g
       id="g3187"
       transform="translate(-96.940478,124.15476)">
      <g
         transform="matrix(0.35277777,0,0,-0.35277777,110.40326,144.14482)"
         id="g580">
        <path
           inkscape:connector-curvature="0"
           id="path582"
           style="fill:#7d40a7;fill-opacity:1;fill-rule:evenodd;stroke:none"
           d="M 0,0 5.055,-31.8 0,-69.938 l -19.944,30.584 0.536,53.807 z" />
      </g>
      <g
         transform="matrix(0.35277777,0,0,-0.35277777,110.40326,144.14482)"
         id="g584">
        <path
           inkscape:connector-curvature="0"
           id="path586"
           style="fill:#9159b9;fill-opacity:1;fill-rule:evenodd;stroke:none"
           d="M 0,0 69.936,2.936 V -67 L 0,-69.938 Z" />
      </g>
      <g
         transform="matrix(0.35277777,0,0,-0.35277777,125.18155,168.19685)"
         id="g588">
        <path
           inkscape:connector-curvature="0"
           id="path590"
           style="fill:#c2dd39;fill-opacity:1;fill-rule:evenodd;stroke:none"
           d="m 0,0 -13.846,-0.58 v 55.86 l 6.36,0.253 L 0,55.829 Z" />
      </g>
      <g
         transform="matrix(0.35277777,0,0,-0.35277777,136.23728,148.43766)"
         id="g592">
        <path
           inkscape:connector-curvature="0"
           id="path594"
           style="fill:#9159b9;fill-opacity:1;fill-rule:evenodd;stroke:none"
           d="M 0,0 -75.378,-2.921 V 12.496 L -44.194,19.278 0,16.049 Z" />
      </g>
      <g
         transform="matrix(0.35277777,0,0,-0.35277777,125.51785,148.85278)"
         id="g596">
        <path
           inkscape:connector-curvature="0"
           id="path598"
           style="fill:#ceea44;fill-opacity:1;fill-rule:evenodd;stroke:none"
           d="m 0,0 -14.8,-0.574 0.193,19.914 H 0 Z" />
      </g>
      <g
         transform="matrix(0.35277777,0,0,-0.35277777,109.64567,149.46806)"
         id="g600">
        <path
           inkscape:connector-curvature="0"
           id="path602"
           style="fill:#7d40a7;fill-opacity:1;fill-rule:evenodd;stroke:none"
           d="M 0,0 -19.848,16.815 -19.814,31.528 -8.563,22.329 0,15.417 Z" />
      </g>
      <g
         transform="matrix(0.35277777,0,0,-0.35277777,102.64367,138.34988)"
         id="g604">
        <path
           inkscape:connector-curvature="0"
           id="path606"
           style="fill:#c38aec;fill-opacity:1;fill-rule:evenodd;stroke:none"
           d="M 0,0 62.899,2.953 95.226,-12.755 19.848,-16.1 Z" />
      </g>
      <g
         transform="matrix(0.35277777,0,0,-0.35277777,120.29692,149.05517)"
         id="g608">
        <path
           inkscape:connector-curvature="0"
           id="path610"
           style="fill:#7d40a7;fill-opacity:1;fill-rule:evenodd;stroke:none"
           d="m 0,0 v -3.226 l -25.15,-1.065 -2.895,-0.124 v 3.327 l 2.372,0.092 z" />
      </g>
      <g
         transform="matrix(0.35277777,0,0,-0.35277777,120.29692,150.19319)"
         id="g612">
        <path
           inkscape:connector-curvature="0"
           id="path614"
           style="fill:#aac32f;fill-opacity:1;fill-rule:evenodd;stroke:none"
           d="M 0,0 V 3.226 L 13.846,3.763 V 0.586 Z" />
      </g>
      <g
         transform="matrix(0.35277777,0,0,-0.35277777,125.18155,149.9865)"
         id="g616">
        <path
           inkscape:connector-curvature="0"
           id="path618"
           style="fill:#7d40a7;fill-opacity:1;fill-rule:evenodd;stroke:none"
           d="m 0,0 v 3.177 l 0.953,0.037 27.092,1.05 V 1.19 Z" />
      </g>
      <g
         transform="matrix(0.35277777,0,0,-0.35277777,107.21785,142.06018)"
         id="g620">
        <path
           inkscape:connector-curvature="0"
           id="path622"
           style="fill:#aac32f;fill-opacity:1;fill-rule:evenodd;stroke:none"
           d="m 0,0 -0.068,-15.111 -6.838,5.793 0.045,14.883 z" />
      </g>
      <g
         transform="matrix(0.35277777,0,0,-0.35277777,107.6541,147.78061)"
         id="g624">
        <path
           inkscape:connector-curvature="0"
           id="path626"
           style="fill:#aac32f;fill-opacity:1;fill-rule:evenodd;stroke:none"
           d="m 0,0 v -47.68 l -6.757,10.36 V 5.724 l 5.453,-4.62 z" />
      </g>
      <g
         transform="matrix(0.35277777,0,0,-0.35277777,105.27038,145.76142)"
         id="g628">
        <path
           inkscape:connector-curvature="0"
           id="path630"
           style="fill:#612b86;fill-opacity:1;fill-rule:evenodd;stroke:none"
           d="m 0,0 v -4.437 l -5.052,4.034 0.047,4.643 3.62,-3.066 z" />
      </g>
      <g
         transform="matrix(0.35277777,0,0,-0.35277777,105.27038,147.32687)"
         id="g632">
        <path
           inkscape:connector-curvature="0"
           id="path634"
           style="fill:#8aa01e;fill-opacity:1;fill-rule:evenodd;stroke:none"
           d="M 0,0 V 4.437 L 5.453,-0.182 6.757,-1.286 V -5.395 Z" />
      </g>
      <g
         transform="matrix(0.35277777,0,0,-0.35277777,107.6541,149.23025)"
         id="g636">
        <path
           inkscape:connector-curvature="0"
           id="path638"
           style="fill:#612b86;fill-opacity:1;fill-rule:evenodd;stroke:none"
           d="m 0,0 v 4.109 l 5.645,-4.783 2.148,0.082 V -3.919 H 4.906 Z" />
      </g>
      <g
         transform="matrix(0.35277777,0,0,-0.35277777,104.9545,140.08727)"
         id="g640">
        <path
           inkscape:connector-curvature="0"
           id="path642"
           style="fill:#e0fb5d;fill-opacity:1;fill-rule:evenodd;stroke:none"
           d="M 0,0 26.381,1.676 18.699,6.11 31.593,6.716 37.679,3.16 62.97,4.662 l 10.578,-5.14 -26.724,-1.637 4.509,-2.778 0.996,-0.614 5.961,-3.671 -14.65,-0.65 -6.606,3.816 -3.352,1.936 -26.248,-1.46 -1.018,-0.056 -6.861,5.565 z" />
      </g>
      <g
         transform="matrix(0.35277777,0,0,-0.35277777,129.98987,150.78392)"
         id="g644">
        <path
           inkscape:connector-curvature="0"
           id="path646"
           style="fill:#f5f4eb;fill-opacity:1;fill-rule:evenodd;stroke:none"
           d="m 0,0 c -0.136,-5.661 -3.308,-8.288 -8.58,-8.58 5.661,-0.135 8.288,-3.309 8.58,-8.579 0.136,5.66 3.308,8.288 8.58,8.579 C 2.918,-8.444 0.292,-5.271 0,0" />
      </g>
      <g
         transform="matrix(0.35277777,0,0,-0.35277777,129.98987,159.37977)"
         id="g648">
        <path
           inkscape:connector-curvature="0"
           id="path650"
           style="fill:#f5f4eb;fill-opacity:1;fill-rule:evenodd;stroke:none"
           d="m 0,0 c -0.136,-5.661 -3.308,-8.288 -8.58,-8.58 5.661,-0.135 8.288,-3.309 8.58,-8.579 0.136,5.66 3.308,8.288 8.58,8.579 C 2.918,-8.444 0.292,-5.271 0,0" />
      </g>
      <g
         transform="matrix(0.35277777,0,0,-0.35277777,115.31615,159.99022)"
         id="g652">
        <path
           inkscape:connector-curvature="0"
           id="path654"
           style="fill:#f5f4eb;fill-opacity:1;fill-rule:evenodd;stroke:none"
           d="m 0,0 c -0.137,-5.661 -3.31,-8.287 -8.58,-8.58 5.66,-0.135 8.288,-3.309 8.58,-8.579 0.136,5.66 3.308,8.288 8.578,8.579 C 2.919,-8.444 0.29,-5.271 0,0" />
      </g>
      <g
         transform="matrix(0.35277777,0,0,-0.35277777,115.39196,151.44566)"
         id="g656">
        <path
           inkscape:connector-curvature="0"
           id="path658"
           style="fill:#f5f4eb;fill-opacity:1;fill-rule:evenodd;stroke:none"
           d="m 0,0 c -0.136,-5.661 -3.308,-8.287 -8.58,-8.579 5.662,-0.136 8.288,-3.31 8.58,-8.58 0.136,5.66 3.31,8.288 8.58,8.58 C 2.92,-8.443 0.292,-5.271 0,0" />
      </g>
      <g
         transform="matrix(0.35277777,0,0,-0.35277777,108.99995,151.36011)"
         id="g660">
        <path
           inkscape:connector-curvature="0"
           id="path662"
           style="fill:#f5f4eb;fill-opacity:1;fill-rule:evenodd;stroke:none"
           d="m 0,0 c -0.02,-1.447 -0.267,-2.437 -0.715,-2.982 -0.439,-0.537 -1.082,-0.642 -1.877,-0.409 0.855,-0.357 1.485,-1.002 1.905,-1.915 0.426,-0.929 0.643,-2.123 0.687,-3.499 0.02,1.441 0.274,2.374 0.715,2.903 0.447,0.536 1.081,0.665 1.876,0.399 C 1.736,-5.094 1.115,-4.378 0.687,-3.44 0.269,-2.517 0.044,-1.365 0,0" />
      </g>
      <g
         transform="matrix(0.35277777,0,0,-0.35277777,108.99995,160.33728)"
         id="g664">
        <path
           inkscape:connector-curvature="0"
           id="path666"
           style="fill:#f5f4eb;fill-opacity:1;fill-rule:evenodd;stroke:none"
           d="m 0,0 c -0.02,-1.447 -0.267,-2.437 -0.715,-2.982 -0.439,-0.536 -1.082,-0.64 -1.877,-0.408 0.855,-0.356 1.485,-1.001 1.905,-1.914 0.426,-0.931 0.643,-2.124 0.687,-3.5 0.02,1.441 0.274,2.373 0.715,2.903 0.447,0.536 1.081,0.664 1.876,0.399 C 1.736,-5.094 1.115,-4.377 0.687,-3.438 0.269,-2.516 0.044,-1.365 0,0" />
      </g>
      <g
         transform="matrix(0.35277777,0,0,-0.35277777,104.30656,148.18984)"
         id="g668">
        <path
           inkscape:connector-curvature="0"
           id="path670"
           style="fill:#f5f4eb;fill-opacity:1;fill-rule:evenodd;stroke:none"
           d="m 0,0 c -0.012,-0.865 -0.159,-1.457 -0.426,-1.783 -0.262,-0.322 -0.647,-0.383 -1.124,-0.244 0.512,-0.213 0.889,-0.6 1.14,-1.144 0.255,-0.558 0.384,-1.272 0.41,-2.093 0.013,0.861 0.165,1.419 0.427,1.735 0.268,0.321 0.647,0.398 1.123,0.239 C 1.04,-3.046 0.667,-2.618 0.412,-2.057 0.162,-1.506 0.026,-0.817 0,0" />
      </g>
      <g
         transform="matrix(0.35277777,0,0,-0.35277777,104.30656,155.83481)"
         id="g672">
        <path
           inkscape:connector-curvature="0"
           id="path674"
           style="fill:#f5f4eb;fill-opacity:1;fill-rule:evenodd;stroke:none"
           d="m 0,0 c -0.012,-0.866 -0.159,-1.457 -0.426,-1.783 -0.262,-0.322 -0.647,-0.383 -1.124,-0.244 0.512,-0.213 0.889,-0.598 1.14,-1.144 0.255,-0.558 0.384,-1.271 0.41,-2.093 0.013,0.861 0.165,1.42 0.427,1.736 0.268,0.32 0.647,0.397 1.123,0.238 C 1.04,-3.046 0.667,-2.618 0.412,-2.057 0.162,-1.505 0.026,-0.817 0,0" />
      </g>
      <g
         transform="matrix(0.35277777,0,0,-0.35277777,106.9224,135.01775)"
         id="g676">
        <path
           inkscape:connector-curvature="0"
           id="path678"
           style="fill:#e0fb5d;fill-opacity:1;fill-rule:evenodd;stroke:none"
           d="m 0,0 c 0,0 18.525,1.974 30.145,-10.311 1.636,-1.73 4.067,-3.332 5.315,-5.693 l 2.416,4.747 C 33.79,-0.556 23.23,7.716 10.35,8.914 5.452,7.07 3.719,4.555 0,0" />
      </g>
      <g
         transform="matrix(0.35277777,0,0,-0.35277777,106.9224,135.01775)"
         id="g680">
        <path
           inkscape:connector-curvature="0"
           id="path682"
           style="fill:#c2dd39;fill-opacity:1;fill-rule:evenodd;stroke:none"
           d="m 0,0 c 0,0 4.847,-19.54 35.46,-16.004 -1.189,2.25 -2.591,4.191 -4.136,5.864 C 19.734,2.426 0,0 0,0" />
      </g>
      <g
         transform="matrix(0.35277777,0,0,-0.35277777,111.01829,135.16017)"
         id="g684">
        <path
           inkscape:connector-curvature="0"
           id="path686"
           style="fill:#f9f9f6;fill-opacity:1;fill-rule:evenodd;stroke:none"
           d="M 0,0 C 2.008,-4.97 11.668,-8.652 18.197,-8.217 12.693,-3.122 5.784,-0.912 0,0" />
      </g>
      <g
         transform="matrix(0.35277777,0,0,-0.35277777,107.15831,135.66228)"
         id="g688">
        <path
           inkscape:connector-curvature="0"
           id="path690"
           style="fill:#aac32f;fill-opacity:1;fill-rule:evenodd;stroke:none"
           d="M 0,0 C 4.497,0.224 8.471,0.146 11.92,-0.234 11.504,0.299 11.173,0.852 10.942,1.423 4.417,2.451 -0.669,1.826 -0.669,1.826 -0.669,1.826 -0.494,1.12 0,0" />
      </g>
      <g
         transform="matrix(0.35277777,0,0,-0.35277777,117.08985,138.44982)"
         id="g692">
        <path
           inkscape:connector-curvature="0"
           id="path694"
           style="fill:#aac32f;fill-opacity:1;fill-rule:evenodd;stroke:none"
           d="M 0,0 C 2.069,-2 3.79,-4.142 5.166,-6.427 5.65,-6.384 6.142,-6.333 6.639,-6.275 5.45,-4.025 4.048,-2.085 2.503,-0.41 2.363,-0.256 2.219,-0.106 2.076,0.041 1.72,0.412 1.356,0.767 0.986,1.108 0.545,1.077 0.088,1.067 -0.379,1.075 -0.647,1.078 -0.92,1.089 -1.195,1.107 -0.784,0.743 -0.386,0.375 0,0" />
      </g>
      <g
         transform="matrix(0.35277777,0,0,-0.35277777,107.00619,147.4193)"
         id="g696">
        <path
           inkscape:connector-curvature="0"
           id="path698"
           style="fill:#d2ec53;fill-opacity:1;fill-rule:evenodd;stroke:none"
           d="m 0,0 c 10.75,17.772 33.75,18.995 33.75,18.995 -0.756,1.477 -3.203,4.27 -3.712,4.812 C 19.467,26.161 4.117,20.827 -4.147,11.832 -3.004,7.5 -1.558,4.222 0,0" />
      </g>
      <g
         transform="matrix(0.35277777,0,0,-0.35277777,131.95823,135.01775)"
         id="g700">
        <path
           inkscape:connector-curvature="0"
           id="path702"
           style="fill:#e0fb5d;fill-opacity:1;fill-rule:evenodd;stroke:none"
           d="m 0,0 c 0,0 -18.526,1.974 -30.145,-10.311 -1.637,-1.73 -4.068,-3.332 -5.315,-5.693 l -2.417,4.747 C -33.79,-0.556 -23.231,7.716 -10.35,8.914 -5.453,7.07 -3.72,4.555 0,0" />
      </g>
      <g
         transform="matrix(0.35277777,0,0,-0.35277777,131.95823,135.01775)"
         id="g704">
        <path
           inkscape:connector-curvature="0"
           id="path706"
           style="fill:#c2dd39;fill-opacity:1;fill-rule:evenodd;stroke:none"
           d="m 0,0 c 0,0 -4.849,-19.54 -35.46,-16.004 1.188,2.25 2.59,4.191 4.135,5.864 C -19.734,2.426 0,0 0,0" />
      </g>
      <g
         transform="matrix(0.35277777,0,0,-0.35277777,127.86192,135.16017)"
         id="g708">
        <path
           inkscape:connector-curvature="0"
           id="path710"
           style="fill:#f9f9f6;fill-opacity:1;fill-rule:evenodd;stroke:none"
           d="M 0,0 C -2.008,-4.97 -11.668,-8.652 -18.197,-8.217 -12.693,-3.122 -5.782,-0.912 0,0" />
      </g>
      <g
         transform="matrix(0.35277777,0,0,-0.35277777,131.72187,135.66228)"
         id="g712">
        <path
           inkscape:connector-curvature="0"
           id="path714"
           style="fill:#aac32f;fill-opacity:1;fill-rule:evenodd;stroke:none"
           d="m 0,0 c -4.497,0.224 -8.471,0.146 -11.92,-0.234 0.416,0.533 0.747,1.086 0.978,1.657 C -4.417,2.451 0.67,1.826 0.67,1.826 0.67,1.826 0.494,1.12 0,0" />
      </g>
      <g
         transform="matrix(0.35277777,0,0,-0.35277777,121.79033,138.44982)"
         id="g716">
        <path
           inkscape:connector-curvature="0"
           id="path718"
           style="fill:#aac32f;fill-opacity:1;fill-rule:evenodd;stroke:none"
           d="m 0,0 c -2.069,-2 -3.79,-4.142 -5.166,-6.427 -0.483,0.043 -0.976,0.094 -1.472,0.152 1.188,2.25 2.59,4.19 4.135,5.865 0.14,0.154 0.284,0.304 0.427,0.451 0.356,0.371 0.72,0.726 1.09,1.067 C -0.543,1.077 -0.087,1.067 0.379,1.075 0.647,1.078 0.921,1.089 1.195,1.107 0.785,0.743 0.386,0.375 0,0" />
      </g>
      <g
         transform="matrix(0.35277777,0,0,-0.35277777,131.87402,147.4193)"
         id="g720">
        <path
           inkscape:connector-curvature="0"
           id="path722"
           style="fill:#d2ec53;fill-opacity:1;fill-rule:evenodd;stroke:none"
           d="m 0,0 c -10.75,17.772 -33.75,18.995 -33.75,18.995 0.756,1.477 3.203,4.27 3.712,4.812 10.571,2.354 25.921,-2.98 34.185,-11.975 C 3.005,7.5 1.558,4.222 0,0" />
      </g>
    </g>
  </g>
</svg>
