<?xml version="1.0" encoding="UTF-8" standalone="no"?>
<!-- Created with Inkscape (http://www.inkscape.org/) -->

<svg
   xmlns:dc="http://purl.org/dc/elements/1.1/"
   xmlns:cc="http://creativecommons.org/ns#"
   xmlns:rdf="http://www.w3.org/1999/02/22-rdf-syntax-ns#"
   xmlns:svg="http://www.w3.org/2000/svg"
   xmlns="http://www.w3.org/2000/svg"
   xmlns:sodipodi="http://sodipodi.sourceforge.net/DTD/sodipodi-0.dtd"
   xmlns:inkscape="http://www.inkscape.org/namespaces/inkscape"
   width="45mm"
   height="45mm"
   viewBox="0 0 45 45"
   version="1.1"
   id="svg2965"
   inkscape:version="0.92.3 (2405546, 2018-03-11)"
   sodipodi:docname="g1.svg">
  <defs
     id="defs2959" />
  <sodipodi:namedview
     id="base"
     pagecolor="#ffffff"
     bordercolor="#666666"
     borderopacity="1.0"
     inkscape:pageopacity="0.0"
     inkscape:pageshadow="2"
     inkscape:zoom="1.979899"
     inkscape:cx="72.558183"
     inkscape:cy="169.10821"
     inkscape:document-units="mm"
     inkscape:current-layer="layer1"
     showgrid="false"
     units="mm"
     width="50mm"
     inkscape:window-width="1920"
     inkscape:window-height="1024"
     inkscape:window-x="0"
     inkscape:window-y="0"
     inkscape:window-maximized="1" />
  <metadata
     id="metadata2962">
    <rdf:RDF>
      <cc:Work
         rdf:about="">
        <dc:format>image/svg+xml</dc:format>
        <dc:type
           rdf:resource="http://purl.org/dc/dcmitype/StillImage" />
        <dc:title></dc:title>
      </cc:Work>
    </rdf:RDF>
  </metadata>
  <g
     inkscape:label="Layer 1"
     inkscape:groupmode="layer"
     id="layer1"
     transform="translate(0,-252)">
    <g
       id="g3463"
       transform="translate(-6.4987438,4.2269542)">
      <g
         transform="matrix(0.35277777,0,0,-0.35277777,28.998391,263.1052)"
         id="g32">
        <path
           inkscape:connector-curvature="0"
           id="path34"
           style="fill:#408ab4;fill-opacity:1;fill-rule:evenodd;stroke:none"
           d="M 0,0 38.341,5.689 46.777,-66.253 0,-76.489 l -46.775,10.236 8.437,71.942 z" />
      </g>
      <g
         transform="matrix(0.35277777,0,0,-0.35277777,28.998391,263.1052)"
         id="g36">
        <path
           inkscape:connector-curvature="0"
           id="path38"
           style="fill:#59a3ce;fill-opacity:1;fill-rule:evenodd;stroke:none"
           d="m 0,0 v -76.489 l -46.775,10.236 8.437,71.942 z" />
      </g>
      <g
         transform="matrix(0.35277777,0,0,-0.35277777,28.998391,256.14359)"
         id="g40">
        <path
           inkscape:connector-curvature="0"
           id="path42"
           style="fill:#59a3ce;fill-opacity:1;fill-rule:evenodd;stroke:none"
           d="M 0,0 3.37,-19.233 0,-36.184 l -46.667,7.991 2.283,20.315 z" />
      </g>
      <g
         transform="matrix(0.35277777,0,0,-0.35277777,44.657138,258.92228)"
         id="g44">
        <path
           inkscape:connector-curvature="0"
           id="path46"
           style="fill:#408ab4;fill-opacity:1;fill-rule:evenodd;stroke:none"
           d="m 0,0 -44.387,-6.62 v -21.687 l 46.669,7.99 z" />
      </g>
      <g
         transform="matrix(0.35277777,0,0,-0.35277777,28.998391,261.25784)"
         id="g48">
        <path
           inkscape:connector-curvature="0"
           id="path50"
           style="fill:#74dfff;fill-opacity:1;fill-rule:evenodd;stroke:none"
           d="M 0,0 -44.384,6.62 0,14.497 44.387,6.62 Z" />
      </g>
      <g
         transform="matrix(0.35277777,0,0,-0.35277777,43.322614,267.90901)"
         id="g52">
        <path
           inkscape:connector-curvature="0"
           id="path54"
           style="fill:#3479a0;fill-opacity:1;fill-rule:evenodd;stroke:none"
           d="m 0,0 -0.475,4.036 -40.129,-6.869 v -4.33 z" />
      </g>
      <g
         transform="matrix(0.35277777,0,0,-0.35277777,28.998391,268.90854)"
         id="g56">
        <path
           inkscape:connector-curvature="0"
           id="path58"
           style="fill:#3d85af;fill-opacity:1;fill-rule:evenodd;stroke:none"
           d="M 0,0 -40.128,6.869 -40.562,3.178 0,-4.33 Z" />
      </g>
      <g
         transform="matrix(0.35277777,0,0,-0.35277777,26.645081,279.77272)"
         id="g68">
        <path
           inkscape:connector-curvature="0"
           id="path70"
           style="fill:#f5f4eb;fill-opacity:1;fill-rule:evenodd;stroke:none"
           d="m 0,0 c -1.278,0.037 -2.448,-1.591 -2.617,-3.621 -0.168,-2.029 0.745,-3.61 2.035,-3.549 1.29,0.058 2.459,1.664 2.615,3.6 C 2.186,-1.637 1.279,-0.037 0,0 m -6.736,-8.936 c -1.01,-0.076 -1.983,-0.813 -2.738,-1.971 -0.756,-1.163 -1.299,-2.753 -1.442,-4.441 -0.144,-1.692 0.142,-3.152 0.722,-4.127 0.577,-0.97 1.452,-1.462 2.478,-1.273 1.025,0.188 2.003,1.002 2.761,2.156 0.75,1.142 1.284,2.625 1.412,4.198 0.128,1.573 -0.166,2.964 -0.743,3.949 -0.576,0.989 -1.438,1.582 -2.45,1.509 m 5.511,29.793 c -1.392,0.327 -2.74,-0.341 -3.785,-1.723 -1.054,-1.397 -1.806,-3.513 -2.013,-5.939 -0.205,-2.427 0.177,-4.688 0.981,-6.328 0.795,-1.624 2.01,-2.655 3.433,-2.744 1.421,-0.09 2.78,0.741 3.832,2.109 1.04,1.354 1.777,3.264 1.955,5.456 0.177,2.194 -0.232,4.296 -1.027,5.952 -0.797,1.665 -1.981,2.89 -3.376,3.217" />
      </g>
      <g
         transform="matrix(0.35277777,0,0,-0.35277777,15.537166,277.21275)"
         id="g72">
        <path
           inkscape:connector-curvature="0"
           id="path74"
           style="fill:#f5f4eb;fill-opacity:1;fill-rule:evenodd;stroke:none"
           d="M 0,0 C 1.25,-0.268 2,-2.127 1.677,-4.139 1.358,-6.149 0.096,-7.466 -1.142,-7.102 -2.381,-6.738 -3.135,-4.899 -2.823,-2.985 -2.515,-1.067 -1.25,0.27 0,0 m 4.412,-10.282 c 0.965,-0.314 1.735,-1.262 2.189,-2.567 0.46,-1.31 0.606,-2.982 0.345,-4.657 -0.264,-1.677 -0.888,-3.026 -1.685,-3.838 -0.791,-0.804 -1.758,-1.073 -2.71,-0.647 -0.951,0.429 -1.706,1.454 -2.169,2.754 -0.456,1.289 -0.622,2.856 -0.37,4.413 0.249,1.559 0.869,2.842 1.663,3.659 0.796,0.825 1.77,1.195 2.737,0.883 M 6.16,19.965 C 7.592,19.952 8.741,18.982 9.425,17.39 10.116,15.783 10.342,13.551 9.965,11.141 9.586,8.737 8.674,6.633 7.507,5.231 6.345,3.841 4.92,3.131 3.517,3.385 2.114,3.637 0.992,4.766 0.299,6.345 c -0.687,1.564 -0.95,3.594 -0.6,5.766 0.351,2.171 1.251,4.115 2.415,5.534 1.172,1.426 2.612,2.333 4.046,2.32" />
      </g>
      <g
         transform="matrix(0.35277777,0,0,-0.35277777,42.651736,277.17348)"
         id="g76">
        <path
           inkscape:connector-curvature="0"
           id="path78"
           style="fill:#f5f4eb;fill-opacity:1;fill-rule:evenodd;stroke:none"
           d="M 0,0 C -1.272,0.118 -2.24,1.873 -2.163,3.908 -2.086,5.943 -0.99,7.403 0.282,7.188 1.555,6.975 2.524,5.24 2.446,3.301 2.366,1.364 1.274,-0.117 0,0 m -5.612,9.679 c -0.996,0.197 -1.876,1.046 -2.485,2.286 -0.611,1.245 -0.958,2.888 -0.898,4.583 0.06,1.696 0.518,3.11 1.21,4.01 0.689,0.894 1.617,1.278 2.614,0.967 0.996,-0.309 1.869,-1.236 2.483,-2.473 0.609,-1.223 0.961,-2.759 0.9,-4.336 C -1.851,13.138 -2.312,11.792 -3.001,10.882 -3.695,9.971 -4.618,9.484 -5.612,9.679 m 1.894,-30.239 c -1.424,-0.158 -2.682,0.668 -3.552,2.165 -0.878,1.516 -1.372,3.703 -1.286,6.138 0.089,2.434 0.741,4.632 1.734,6.162 0.982,1.52 2.312,2.395 3.737,2.314 1.423,-0.08 2.672,-1.068 3.549,-2.554 0.871,-1.47 1.375,-3.453 1.289,-5.651 -0.088,-2.197 -0.748,-4.235 -1.734,-5.785 -0.992,-1.556 -2.314,-2.629 -3.737,-2.789" />
      </g>
      <g
         transform="matrix(0.35277777,0,0,-0.35277777,31.316739,278.38235)"
         id="g80">
        <path
           inkscape:connector-curvature="0"
           id="path82"
           style="fill:#f5f4eb;fill-opacity:1;fill-rule:evenodd;stroke:none"
           d="M 0,0 C 1.273,0.117 2.242,1.873 2.164,3.908 2.086,5.943 0.991,7.403 -0.282,7.188 -1.554,6.975 -2.524,5.24 -2.445,3.301 -2.366,1.363 -1.273,-0.119 0,0 m 5.614,9.679 c 0.994,0.196 1.876,1.046 2.483,2.287 0.613,1.245 0.958,2.886 0.898,4.582 -0.06,1.695 -0.517,3.11 -1.209,4.01 C 7.097,21.452 6.168,21.836 5.172,21.525 4.176,21.216 3.302,20.289 2.69,19.052 2.08,17.827 1.728,16.292 1.79,14.714 1.852,13.139 2.312,11.792 3.002,10.883 3.695,9.97 4.618,9.484 5.614,9.679 M 3.718,-20.559 c 1.424,-0.158 2.682,0.667 3.553,2.164 0.879,1.514 1.371,3.703 1.285,6.138 C 8.469,-9.823 7.817,-7.625 6.823,-6.095 5.84,-4.574 4.51,-3.699 3.085,-3.78 1.663,-3.862 0.413,-4.851 -0.464,-6.334 c -0.869,-1.471 -1.375,-3.453 -1.288,-5.652 0.088,-2.198 0.748,-4.236 1.734,-5.786 0.991,-1.555 2.314,-2.63 3.736,-2.787" />
      </g>
      <g
         transform="matrix(0.35277777,0,0,-0.35277777,23.389259,260.4207)"
         id="g84">
        <path
           inkscape:connector-curvature="0"
           id="path86"
           style="fill:#f44831;fill-opacity:1;fill-rule:evenodd;stroke:none"
           d="M 0,0 15.9,2.888 31.802,0 44.607,1.909 25.624,5.99 39.647,7.91 30.05,9.614 15.9,8.112 1.752,9.614 -7.846,7.91 6.178,5.99 -12.805,1.909 Z" />
      </g>
      <g
         transform="matrix(0.35277777,0,0,-0.35277777,19.065544,268.59689)"
         id="g88">
        <path
           inkscape:connector-curvature="0"
           id="path90"
           style="fill:#f44831;fill-opacity:1;fill-rule:evenodd;stroke:none"
           d="M 0,0 -4.676,-53.738 8.701,-56.664 12.853,-2.38 Z M -1.003,19.893 -2.361,4.343 0.338,3.88 10.676,2.11 l 1.191,15.873 0.389,5.194 -12.805,1.908 z" />
      </g>
      <g
         transform="matrix(0.35277777,0,0,-0.35277777,34.745879,262.25282)"
         id="g92">
        <path
           inkscape:connector-curvature="0"
           id="path94"
           style="fill:#d23b27;fill-opacity:1;fill-rule:evenodd;stroke:none"
           d="m 0,0 1.19,-15.873 10.339,1.77 2.698,0.463 L 12.87,1.91 12.415,7.102 -0.39,5.193 Z m -0.975,-20.495 4.139,-54.153 13.378,2.927 -4.655,53.496 z" />
      </g>
      <g
         transform="matrix(0.35277777,0,0,-0.35277777,40.802159,253.42237)"
         id="g96">
        <path
           inkscape:connector-curvature="0"
           id="path98"
           style="fill:#f44831;fill-opacity:1;fill-rule:evenodd;stroke:none"
           d="m 0,0 c 0,0 -17.469,1.86 -28.426,-9.723 -1.541,-1.631 -3.833,-3.142 -5.011,-5.367 l -2.277,4.475 c 3.852,10.092 13.809,17.89 25.953,19.02 C -5.141,6.667 -3.508,4.295 0,0" />
      </g>
      <g
         transform="matrix(0.35277777,0,0,-0.35277777,40.802159,253.42237)"
         id="g100">
        <path
           inkscape:connector-curvature="0"
           id="path102"
           style="fill:#d23b27;fill-opacity:1;fill-rule:evenodd;stroke:none"
           d="m 0,0 c 0,0 -4.572,-18.425 -33.437,-15.09 1.122,2.121 2.443,3.951 3.9,5.529 C -18.607,2.287 0,0 0,0" />
      </g>
      <g
         transform="matrix(0.35277777,0,0,-0.35277777,36.939698,253.55699)"
         id="g104">
        <path
           inkscape:connector-curvature="0"
           id="path106"
           style="fill:#f9f9f6;fill-opacity:1;fill-rule:evenodd;stroke:none"
           d="M 0,0 C -1.892,-4.685 -11.002,-8.157 -17.158,-7.747 -11.968,-2.943 -5.452,-0.859 0,0" />
      </g>
      <g
         transform="matrix(0.35277777,0,0,-0.35277777,40.579168,254.03031)"
         id="g108">
        <path
           inkscape:connector-curvature="0"
           id="path110"
           style="fill:#af2917;fill-opacity:1;fill-rule:evenodd;stroke:none"
           d="m 0,0 c -4.241,0.212 -7.987,0.14 -11.239,-0.221 0.392,0.502 0.705,1.024 0.922,1.563 6.154,0.97 10.949,0.38 10.949,0.38 C 0.632,1.722 0.467,1.056 0,0" />
      </g>
      <g
         transform="matrix(0.35277777,0,0,-0.35277777,31.215033,256.65864)"
         id="g112">
        <path
           inkscape:connector-curvature="0"
           id="path114"
           style="fill:#af2917;fill-opacity:1;fill-rule:evenodd;stroke:none"
           d="m 0,0 c -1.951,-1.886 -3.575,-3.905 -4.872,-6.06 -0.456,0.041 -0.919,0.088 -1.389,0.144 1.122,2.121 2.443,3.951 3.9,5.53 0.132,0.144 0.268,0.287 0.402,0.425 0.337,0.35 0.68,0.683 1.029,1.006 C -0.515,1.017 -0.083,1.006 0.357,1.013 0.61,1.018 0.867,1.026 1.127,1.044 0.738,0.702 0.363,0.353 0,0" />
      </g>
      <g
         transform="matrix(0.35277777,0,0,-0.35277777,40.722924,265.11603)"
         id="g116">
        <path
           inkscape:connector-curvature="0"
           id="path118"
           style="fill:#f44831;fill-opacity:1;fill-rule:evenodd;stroke:none"
           d="m 0,0 c -10.137,16.757 -31.823,17.912 -31.823,17.912 0.712,1.39 3.02,4.024 3.499,4.537 9.969,2.219 24.442,-2.811 32.235,-11.292 C 2.832,7.071 1.468,3.981 0,0" />
      </g>
      <g
         transform="matrix(0.35277777,0,0,-0.35277777,17.19508,253.42237)"
         id="g120">
        <path
           inkscape:connector-curvature="0"
           id="path122"
           style="fill:#f44831;fill-opacity:1;fill-rule:evenodd;stroke:none"
           d="m 0,0 c 0,0 17.469,1.86 28.426,-9.723 1.542,-1.631 3.835,-3.142 5.011,-5.367 l 2.277,4.475 C 31.862,-0.523 21.905,7.275 9.761,8.405 5.141,6.667 3.508,4.295 0,0" />
      </g>
      <g
         transform="matrix(0.35277777,0,0,-0.35277777,17.19508,253.42237)"
         id="g124">
        <path
           inkscape:connector-curvature="0"
           id="path126"
           style="fill:#dd412c;fill-opacity:1;fill-rule:evenodd;stroke:none"
           d="m 0,0 c 0,0 4.572,-18.425 33.437,-15.09 -1.122,2.121 -2.442,3.951 -3.899,5.529 C 18.608,2.287 0,0 0,0" />
      </g>
      <g
         transform="matrix(0.35277777,0,0,-0.35277777,21.057997,253.55699)"
         id="g128">
        <path
           inkscape:connector-curvature="0"
           id="path130"
           style="fill:#f9f9f6;fill-opacity:1;fill-rule:evenodd;stroke:none"
           d="M 0,0 C 1.892,-4.685 11.001,-8.157 17.157,-7.747 11.967,-2.943 5.452,-0.859 0,0" />
      </g>
      <g
         transform="matrix(0.35277777,0,0,-0.35277777,17.418071,254.03031)"
         id="g132">
        <path
           inkscape:connector-curvature="0"
           id="path134"
           style="fill:#af2917;fill-opacity:1;fill-rule:evenodd;stroke:none"
           d="m 0,0 c 4.241,0.212 7.987,0.14 11.239,-0.221 -0.392,0.502 -0.705,1.024 -0.921,1.563 -6.153,0.97 -10.95,0.38 -10.95,0.38 0,0 0.167,-0.666 0.632,-1.722" />
      </g>
      <g
         transform="matrix(0.35277777,0,0,-0.35277777,26.782522,256.65864)"
         id="g136">
        <path
           inkscape:connector-curvature="0"
           id="path138"
           style="fill:#af2917;fill-opacity:1;fill-rule:evenodd;stroke:none"
           d="m 0,0 c 1.951,-1.886 3.574,-3.905 4.872,-6.06 0.456,0.041 0.919,0.088 1.388,0.144 -1.122,2.121 -2.443,3.951 -3.899,5.53 C 2.229,-0.242 2.093,-0.099 1.96,0.039 1.622,0.389 1.279,0.722 0.93,1.045 0.514,1.017 0.083,1.006 -0.357,1.013 -0.609,1.018 -0.867,1.026 -1.128,1.044 -0.739,0.702 -0.364,0.353 0,0" />
      </g>
      <g
         transform="matrix(0.35277777,0,0,-0.35277777,17.274738,265.11603)"
         id="g140">
        <path
           inkscape:connector-curvature="0"
           id="path142"
           style="fill:#f44831;fill-opacity:1;fill-rule:evenodd;stroke:none"
           d="m 0,0 c 10.136,16.757 31.823,17.912 31.823,17.912 -0.713,1.39 -3.02,4.024 -3.5,4.537 C 18.355,24.668 3.881,19.638 -3.911,11.157 -2.834,7.071 -1.47,3.981 0,0" />
      </g>
      <g
         transform="matrix(0.35277777,0,0,-0.35277777,34.28801,268.00278)"
         id="g144">
        <path
           inkscape:connector-curvature="0"
           id="path146"
           style="fill:#af2917;fill-opacity:1;fill-rule:evenodd;stroke:none"
           d="M 0,0 0.323,-4.195 13.185,-1.926 12.827,2.196 2.487,0.426 Z" />
      </g>
      <g
         transform="matrix(0.35277777,0,0,-0.35277777,19.065544,268.59689)"
         id="g148">
        <path
           inkscape:connector-curvature="0"
           id="path150"
           style="fill:#d23b27;fill-opacity:1;fill-rule:evenodd;stroke:none"
           d="M 0,0 12.853,-2.38 13.163,1.684 10.676,2.11 0.338,3.88 Z" />
      </g>
    </g>
  </g>
</svg>
