<?xml version="1.0" encoding="UTF-8" standalone="no"?>
<!-- Created with Inkscape (http://www.inkscape.org/) -->

<svg
   xmlns:dc="http://purl.org/dc/elements/1.1/"
   xmlns:cc="http://creativecommons.org/ns#"
   xmlns:rdf="http://www.w3.org/1999/02/22-rdf-syntax-ns#"
   xmlns:svg="http://www.w3.org/2000/svg"
   xmlns="http://www.w3.org/2000/svg"
   xmlns:sodipodi="http://sodipodi.sourceforge.net/DTD/sodipodi-0.dtd"
   xmlns:inkscape="http://www.inkscape.org/namespaces/inkscape"
   width="45mm"
   height="45mm"
   viewBox="0 0 45 45"
   version="1.1"
   id="svg2965"
   inkscape:version="0.92.3 (2405546, 2018-03-11)"
   sodipodi:docname="g2.svg">
  <defs
     id="defs2959" />
  <sodipodi:namedview
     id="base"
     pagecolor="#ffffff"
     bordercolor="#666666"
     borderopacity="1.0"
     inkscape:pageopacity="0.0"
     inkscape:pageshadow="2"
     inkscape:zoom="1.979899"
     inkscape:cx="72.558183"
     inkscape:cy="169.10821"
     inkscape:document-units="mm"
     inkscape:current-layer="layer1"
     showgrid="false"
     units="mm"
     width="50mm"
     inkscape:window-width="1920"
     inkscape:window-height="1024"
     inkscape:window-x="0"
     inkscape:window-y="0"
     inkscape:window-maximized="1" />
  <metadata
     id="metadata2962">
    <rdf:RDF>
      <cc:Work
         rdf:about="">
        <dc:format>image/svg+xml</dc:format>
        <dc:type
           rdf:resource="http://purl.org/dc/dcmitype/StillImage" />
        <dc:title></dc:title>
      </cc:Work>
    </rdf:RDF>
  </metadata>
  <g
     inkscape:label="Layer 1"
     inkscape:groupmode="layer"
     id="layer1"
     transform="translate(0,-252)">
    <g
       id="g3816"
       transform="translate(-39.372895,34.695675)">
      <g
         transform="matrix(0.35277777,0,0,-0.35277777,70.909546,235.34761)"
         id="g1064">
        <path
           inkscape:connector-curvature="0"
           id="path1066"
           style="fill:#ce601b;fill-opacity:1;fill-rule:evenodd;stroke:none"
           d="M 0,0 -5.054,-31.913 0,-69.938 19.945,-38.905 19.41,14.89 Z" />
      </g>
      <g
         transform="matrix(0.35277777,0,0,-0.35277777,77.823248,236.78885)"
         id="g1068">
        <path
           inkscape:connector-curvature="0"
           id="path1070"
           style="fill:#e7e6d9;fill-opacity:1;fill-rule:evenodd;stroke:none"
           d="m 0,0 -11.781,6.365 1.118,1.989 10.637,-5.746 z m -20.229,-61.094 0.372,-2.793 1.131,-0.61 1.235,1.923 z m -1.327,9.984 0.371,-2.793 6.878,-3.717 1.238,1.925 z m -1.328,9.983 14.234,-7.69 -1.236,-1.925 -12.627,6.822 z m -1.327,9.984 0.371,-2.795 18.375,-9.926 1.236,1.925 z m 0.461,9.016 23.942,-12.935 -1.238,-1.923 -23.081,12.47 z m 1.353,8.535 -0.378,-2.388 23.058,-12.459 -0.026,2.608 z m 1.352,8.536 21.21,-11.458 0.027,-2.608 -21.614,11.676 z m 1.352,8.534 -0.379,-2.388 20.17,-10.897 -0.026,2.608 z" />
      </g>
      <g
         transform="matrix(0.35277777,0,0,-0.35277777,70.909546,235.34761)"
         id="g1072">
        <path
           inkscape:connector-curvature="0"
           id="path1074"
           style="fill:#fd8016;fill-opacity:1;fill-rule:evenodd;stroke:none"
           d="M 0,0 -69.936,1.364 V -68.572 L 0,-69.938 Z" />
      </g>
      <g
         transform="matrix(0.35277777,0,0,-0.35277777,70.909546,243.03214)"
         id="g1076">
        <path
           inkscape:connector-curvature="0"
           id="path1078"
           style="fill:#f5f4eb;fill-opacity:1;fill-rule:evenodd;stroke:none"
           d="m 0,0 -69.931,-42.977 -0.004,2.59 L 0,2.594 Z m -6.966,-48.018 4.09,-0.08 2.876,1.767 v 2.594 z m -14.615,0.285 4.089,-0.08 L 0,-37.064 v 2.592 z m -14.616,0.284 4.089,-0.079 L 0,-27.799 v 2.593 z m -14.616,0.286 4.089,-0.08 L 0,-18.532 v 2.592 z M -65.431,-46.878 0,-6.672 V -9.266 L -61.339,-46.957 Z M -69.936,-31.115 0,11.859 V 9.265 l -69.936,-42.972 z m 0,9.267 L 0,21.125 v -2.594 l -69.936,-42.973 z m 13.524,44.732 -13.524,-8.311 v 2.593 l 9.434,5.798 z m 15.387,-0.3 -28.911,-17.765 v 2.593 l 24.819,15.251 z m 15.385,-0.3 -44.296,-27.219 v 2.594 l 40.204,24.705 z m 15.385,-0.302 -4.092,0.081 -55.589,-34.158 v -2.593 z" />
      </g>
      <g
         transform="matrix(0.35277777,0,0,-0.35277777,56.13172,259.73126)"
         id="g1080">
        <path
           inkscape:connector-curvature="0"
           id="path1082"
           style="fill:#8a7bd3;fill-opacity:1;fill-rule:evenodd;stroke:none"
           d="M 0,0 13.846,-0.27 V 55.591 L 7.486,55.699 0,55.829 Z" />
      </g>
      <g
         transform="matrix(0.35277777,0,0,-0.35277777,45.075841,240.22092)"
         id="g1084">
        <path
           inkscape:connector-curvature="0"
           id="path1086"
           style="fill:#fd8016;fill-opacity:1;fill-rule:evenodd;stroke:none"
           d="M 0,0 75.378,-1.227 V 14.19 L 44.193,20.27 0,15.839 Z" />
      </g>
      <g
         transform="matrix(0.35277777,0,0,-0.35277777,51.068336,234.03263)"
         id="g1088">
        <path
           inkscape:connector-curvature="0"
           id="path1090"
           style="fill:#f5f4eb;fill-opacity:1;fill-rule:evenodd;stroke:none"
           d="m 0,0 -16.987,-10.436 v 2.591 l 11.944,7.34 z m 44.185,-18.537 4.112,-0.066 10.094,6.201 v 2.593 z m -14.69,0.24 4.111,-0.069 24.518,15.066 -3.203,0.624 z M 14.03,-18.047 42.87,-0.326 46.075,-0.951 18.14,-18.113 Z M -1.432,-17.795 30.821,2.025 34.025,1.4 2.677,-17.863 Z m -15.466,0.252 4.11,-0.068 L 18.97,1.903 13.927,1.396 Z" />
      </g>
      <g
         transform="matrix(0.35277777,0,0,-0.35277777,55.794993,240.39555)"
         id="g1092">
        <path
           inkscape:connector-curvature="0"
           id="path1094"
           style="fill:#8a7bd3;fill-opacity:1;fill-rule:evenodd;stroke:none"
           d="M 0,0 14.8,-0.241 14.608,19.67 0,19.341 Z" />
      </g>
      <g
         transform="matrix(0.35277777,0,0,-0.35277777,71.667452,240.65381)"
         id="g1096">
        <path
           inkscape:connector-curvature="0"
           id="path1098"
           style="fill:#ce601b;fill-opacity:1;fill-rule:evenodd;stroke:none"
           d="M 0,0 19.85,17.262 19.81,31.972 0,15.417 Z" />
      </g>
      <g
         transform="matrix(0.35277777,0,0,-0.35277777,78.669632,229.37805)"
         id="g1100">
        <path
           inkscape:connector-curvature="0"
           id="path1102"
           style="fill:#fda117;fill-opacity:1;fill-rule:evenodd;stroke:none"
           d="m 0,0 -62.899,1.539 -32.327,-16.436 75.377,-1.648 z" />
      </g>
      <g
         transform="matrix(0.35277777,0,0,-0.35277777,61.016209,240.48053)"
         id="g1104">
        <path
           inkscape:connector-curvature="0"
           id="path1106"
           style="fill:#ce601b;fill-opacity:1;fill-rule:evenodd;stroke:none"
           d="m 0,0 v -3.225 l 25.15,-0.5 2.894,-0.058 v 3.326 l -2.37,0.039 z" />
      </g>
      <g
         transform="matrix(0.35277777,0,0,-0.35277777,61.016209,241.61838)"
         id="g1108">
        <path
           inkscape:connector-curvature="0"
           id="path1110"
           style="fill:#7464b7;fill-opacity:1;fill-rule:evenodd;stroke:none"
           d="M 0,0 V 3.225 L -13.846,3.451 V 0.275 Z" />
      </g>
      <g
         transform="matrix(0.35277777,0,0,-0.35277777,56.13172,241.52137)"
         id="g1112">
        <path
           inkscape:connector-curvature="0"
           id="path1114"
           style="fill:#ce601b;fill-opacity:1;fill-rule:evenodd;stroke:none"
           d="M 0,0 V 3.176 L -0.955,3.191 -28.047,3.632 V 0.559 Z" />
      </g>
      <g
         transform="matrix(0.35277777,0,0,-0.35277777,74.095409,233.19098)"
         id="g1116">
        <path
           inkscape:connector-curvature="0"
           id="path1118"
           style="fill:#7464b7;fill-opacity:1;fill-rule:evenodd;stroke:none"
           d="M 0,0 0.068,-15.11 6.906,-9.163 6.86,5.719 1.66,1.402 Z" />
      </g>
      <g
         transform="matrix(0.35277777,0,0,-0.35277777,73.659587,238.92139)"
         id="g1120">
        <path
           inkscape:connector-curvature="0"
           id="path1122"
           style="fill:#7464b7;fill-opacity:1;fill-rule:evenodd;stroke:none"
           d="m 0,0 v -47.68 l 6.755,10.512 V 5.875 L 1.304,1.134 Z" />
      </g>
      <g
         transform="matrix(0.35277777,0,0,-0.35277777,76.042462,236.84882)"
         id="g1124">
        <path
           inkscape:connector-curvature="0"
           id="path1126"
           style="fill:#933f0a;fill-opacity:1;fill-rule:evenodd;stroke:none"
           d="M 0,0 V -4.437 L 5.054,-0.29 5.007,4.353 1.387,1.206 Z" />
      </g>
      <g
         transform="matrix(0.35277777,0,0,-0.35277777,76.042462,238.41427)"
         id="g1128">
        <path
           inkscape:connector-curvature="0"
           id="path1130"
           style="fill:#544889;fill-opacity:1;fill-rule:evenodd;stroke:none"
           d="m 0,0 v 4.437 l -5.451,-4.74 -1.304,-1.134 v -4.109 z" />
      </g>
      <g
         transform="matrix(0.35277777,0,0,-0.35277777,73.659587,240.37085)"
         id="g1132">
        <path
           inkscape:connector-curvature="0"
           id="path1134"
           style="fill:#933f0a;fill-opacity:1;fill-rule:evenodd;stroke:none"
           d="m 0,0 v 4.109 l -5.647,-4.911 -2.148,0.034 v -3.326 l 2.888,0.064 z" />
      </g>
      <g
         transform="matrix(0.35277777,0,0,-0.35277777,76.359078,231.1672)"
         id="g1136">
        <path
           inkscape:connector-curvature="0"
           id="path1138"
           style="fill:#9a89e5;fill-opacity:1;fill-rule:evenodd;stroke:none"
           d="m 0,0 -26.383,1.081 7.683,4.608 -12.894,0.316 -6.088,-3.691 -25.29,0.929 -10.577,-5.377 26.723,-1.036 -4.509,-2.878 -0.996,-0.636 -5.961,-3.805 14.649,-0.322 6.606,3.965 3.353,2.012 26.249,-0.869 1.018,-0.034 6.86,5.719 z" />
      </g>
      <g
         transform="matrix(0.35277777,0,0,-0.35277777,71.667452,237.4931)"
         id="g1140">
        <path
           inkscape:connector-curvature="0"
           id="path1142"
           style="fill:#e7e6d9;fill-opacity:1;fill-rule:evenodd;stroke:none"
           d="M 0,0 6.942,-0.529 6.951,-2.915 0,-2.593 Z" />
      </g>
      <g
         transform="matrix(0.35277777,0,0,-0.35277777,74.102465,234.77848)"
         id="g1144">
        <path
           inkscape:connector-curvature="0"
           id="path1146"
           style="fill:#e7e6d9;fill-opacity:1;fill-rule:evenodd;stroke:none"
           d="m 0,0 -4.773,0.539 -1.889,-1.576 -0.24,-0.201 6.909,-0.59 z" />
      </g>
      <g
         transform="matrix(0.35277777,0,0,-0.35277777,76.527814,235.17433)"
         id="g1148">
        <path
           inkscape:connector-curvature="0"
           id="path1150"
           style="fill:#e7e6d9;fill-opacity:1;fill-rule:evenodd;stroke:none"
           d="M 0,0 0.004,-1.391 2.232,-1.61 2.518,-1.359 3.631,-0.393 4.372,0.252 3.624,0.31 -0.002,0.59 Z" />
      </g>
      <g
         transform="matrix(0.35277777,0,0,-0.35277777,78.665787,233.12511)"
         id="g1152">
        <path
           inkscape:connector-curvature="0"
           id="path1154"
           style="fill:#e7e6d9;fill-opacity:1;fill-rule:evenodd;stroke:none"
           d="M 0,0 -0.001,2.511 -2.519,2.78 -6.087,3.162 -6.08,0.637 -2.495,0.261 Z" />
      </g>
      <g
         transform="matrix(0.35277777,0,0,-0.35277777,55.07208,233.63093)"
         id="g1156">
        <path
           inkscape:connector-curvature="0"
           id="path1158"
           style="fill:#f5f4eb;fill-opacity:1;fill-rule:evenodd;stroke:none"
           d="m 0,0 -0.903,4.372 -3.886,0.151 0.89,-4.914 0.542,-2.997 4.075,-0.088 -0.475,2.301 z M 12.147,2.941 11.855,3.877 8.69,4.002 9.443,1.215 Z M 5.773,13.551 6.895,9.877 10.128,9.758 9.031,13.47 Z m 14.588,-0.357 1.556,-3.869 0.743,-0.028 2.773,1.681 -0.829,2.112 z M 28.931,2.073 26.657,2.15 25.165,1.253 25.81,-0.35 l 1.49,-3.708 4.075,-0.089 -0.82,2.088 -0.333,0.848 z m 9.368,5.813 4.255,-0.174 -1.584,4.558 -3.479,-2.087 z m 6.395,-6.334 -4.21,0.139 1.856,-5.265 0.288,-0.818 2.803,-0.062 1.273,-0.029 0.071,0.044 -0.277,0.802 z m 11.828,5.588 -1.43,5.204 -4.56,0.112 1.553,-5.134 z m -71.284,-8.62 -0.488,5.292 -3.905,-1.986 0.358,-3.71 0.112,-1.168 4.076,-0.089 z" />
      </g>
      <g
         transform="matrix(0.35277777,0,0,-0.35277777,69.866204,220.3227)"
         id="g1160">
        <path
           inkscape:connector-curvature="0"
           id="path1162"
           style="fill:#7464b7;fill-opacity:1;fill-rule:evenodd;stroke:none"
           d="m 0,0 c 3.4,-14.86 -4.893,-27.276 -17.959,-33.923 l -0.409,5.585 c 6.061,3.131 18.224,13.867 9.588,20.29 l 3.647,6.526 z" />
      </g>
      <g
         transform="matrix(0.35277777,0,0,-0.35277777,62.615917,232.01224)"
         id="g1164">
        <path
           inkscape:connector-curvature="0"
           id="path1166"
           style="fill:#9a89e5;fill-opacity:1;fill-rule:evenodd;stroke:none"
           d="m 0,0 c 0,0 1.117,31.195 6.718,33.856 5.599,2.663 11.632,0.865 13.834,-0.72 C 14.255,30.572 2.931,7.899 2.593,-0.787 Z" />
      </g>
      <g
         transform="matrix(0.35277777,0,0,-0.35277777,70.029505,221.36428)"
         id="g1168">
        <path
           inkscape:connector-curvature="0"
           id="path1170"
           style="fill:#544889;fill-opacity:1;fill-rule:evenodd;stroke:none"
           d="M 0,0 C -0.202,1.818 -0.463,2.952 -0.463,2.952 -2.696,2.044 -5.564,-1.396 -8.347,-5.845 -7.645,-6.513 -7.135,-7.218 -6.795,-7.947 -4.851,-5.205 -2.587,-2.556 0,0" />
      </g>
      <g
         transform="matrix(0.35277777,0,0,-0.35277777,64.677902,231.56393)"
         id="g1172">
        <path
           inkscape:connector-curvature="0"
           id="path1174"
           style="fill:#c87a12;fill-opacity:1;fill-rule:evenodd;stroke:none"
           d="M 0,0 C 0.318,2.393 0.818,4.739 1.503,7.027 0.362,6.085 -0.787,5.256 -1.854,4.575 c -0.819,-2.59 -1.329,-4.891 -1.398,-6.632 0,0 1.216,0.616 3.252,2.057" />
      </g>
      <g
         transform="matrix(0.35277777,0,0,-0.35277777,75.52917,227.85638)"
         id="g1176">
        <path
           inkscape:connector-curvature="0"
           id="path1178"
           style="fill:#7464b7;fill-opacity:1;fill-rule:evenodd;stroke:none"
           d="m 0,0 c -7.725,-13.143 -22.277,-16.483 -36.341,-12.353 l 3.534,4.344 c 6.557,-1.881 22.771,-2.419 20.898,8.178 l 7.129,2.246 z" />
      </g>
      <g
         transform="matrix(0.35277777,0,0,-0.35277777,62.233292,231.3843)"
         id="g1180">
        <path
           inkscape:connector-curvature="0"
           id="path1182"
           style="fill:#9a89e5;fill-opacity:1;fill-rule:evenodd;stroke:none"
           d="M 0,0 C 0,0 22.219,21.924 28.121,20.019 34.02,18.111 37.174,12.664 37.689,10 31.348,12.456 7.553,3.733 1.348,-2.353 Z" />
      </g>
      <g
         transform="matrix(0.35277777,0,0,-0.35277777,74.933257,228.72643)"
         id="g1184">
        <path
           inkscape:connector-curvature="0"
           id="path1186"
           style="fill:#544889;fill-opacity:1;fill-rule:evenodd;stroke:none"
           d="M 0,0 C 1.099,1.461 1.689,2.466 1.689,2.466 -0.56,3.338 -5.007,2.803 -10.084,1.475 -10.031,0.509 -10.143,-0.354 -10.397,-1.118 -7.103,-0.458 -3.637,-0.085 0,0" />
      </g>
      <g
         transform="matrix(0.35277777,0,0,-0.35277777,64.04128,232.47307)"
         id="g1188">
        <path
           inkscape:connector-curvature="0"
           id="path1190"
           style="fill:#544889;fill-opacity:1;fill-rule:evenodd;stroke:none"
           d="M 0,0 C 1.874,1.521 3.845,2.883 5.915,4.078 4.44,4.177 3.033,4.362 1.79,4.599 -0.583,3.277 -2.533,1.954 -3.777,0.734 -3.777,0.734 -2.471,0.348 0,0" />
      </g>
      <g
         transform="matrix(0.35277777,0,0,-0.35277777,55.851262,220.3227)"
         id="g1192">
        <path
           inkscape:connector-curvature="0"
           id="path1194"
           style="fill:#7464b7;fill-opacity:1;fill-rule:evenodd;stroke:none"
           d="m 0,0 c -3.399,-14.86 4.893,-27.276 17.959,-33.923 l 0.409,5.585 c -6.061,3.131 -18.224,13.867 -9.588,20.29 l -3.646,6.526 z" />
      </g>
      <g
         transform="matrix(0.35277777,0,0,-0.35277777,63.10215,232.01224)"
         id="g1196">
        <path
           inkscape:connector-curvature="0"
           id="path1198"
           style="fill:#9a89e5;fill-opacity:1;fill-rule:evenodd;stroke:none"
           d="m 0,0 c 0,0 -1.119,31.195 -6.72,33.856 -5.6,2.664 -11.632,0.865 -13.834,-0.72 6.298,-2.564 17.621,-25.237 17.959,-33.924 z" />
      </g>
      <g
         transform="matrix(0.35277777,0,0,-0.35277777,55.688419,221.36382)"
         id="g1200">
        <path
           inkscape:connector-curvature="0"
           id="path1202"
           style="fill:#544889;fill-opacity:1;fill-rule:evenodd;stroke:none"
           d="M 0,0 C 0.202,1.816 0.462,2.951 0.462,2.951 2.696,2.043 5.563,-1.399 8.345,-5.848 7.644,-6.514 7.134,-7.219 6.795,-7.949 4.85,-5.207 2.587,-2.558 0,0" />
      </g>
      <g
         transform="matrix(0.35277777,0,0,-0.35277777,61.039598,231.56393)"
         id="g1204">
        <path
           inkscape:connector-curvature="0"
           id="path1206"
           style="fill:#c87a12;fill-opacity:1;fill-rule:evenodd;stroke:none"
           d="m 0,0 c -0.319,2.393 -0.817,4.737 -1.502,7.027 1.14,-0.942 2.29,-1.772 3.355,-2.452 0.82,-2.59 1.33,-4.891 1.399,-6.633 0,0 -1.216,0.617 -3.252,2.058" />
      </g>
      <g
         transform="matrix(0.35277777,0,0,-0.35277777,50.188755,227.85638)"
         id="g1208">
        <path
           inkscape:connector-curvature="0"
           id="path1210"
           style="fill:#7464b7;fill-opacity:1;fill-rule:evenodd;stroke:none"
           d="m 0,0 c 7.723,-13.143 22.276,-16.483 36.34,-12.353 l -3.534,4.344 C 26.249,-9.89 10.035,-10.428 11.909,0.169 l -7.13,2.246 z" />
      </g>
      <g
         transform="matrix(0.35277777,0,0,-0.35277777,63.484631,231.3843)"
         id="g1212">
        <path
           inkscape:connector-curvature="0"
           id="path1214"
           style="fill:#9a89e5;fill-opacity:1;fill-rule:evenodd;stroke:none"
           d="m 0,0 c 0,0 -22.221,21.925 -28.121,20.017 -5.902,-1.906 -9.054,-7.353 -9.568,-10.017 6.34,2.456 30.134,-6.265 36.34,-12.353 z" />
      </g>
      <g
         transform="matrix(0.35277777,0,0,-0.35277777,50.784208,228.72643)"
         id="g1216">
        <path
           inkscape:connector-curvature="0"
           id="path1218"
           style="fill:#544889;fill-opacity:1;fill-rule:evenodd;stroke:none"
           d="M 0,0 C -1.098,1.461 -1.688,2.466 -1.688,2.466 0.56,3.338 5.007,2.803 10.084,1.475 10.031,0.509 10.143,-0.354 10.397,-1.118 7.103,-0.458 3.637,-0.085 0,0" />
      </g>
      <g
         transform="matrix(0.35277777,0,0,-0.35277777,61.676223,232.47307)"
         id="g1220">
        <path
           inkscape:connector-curvature="0"
           id="path1222"
           style="fill:#544889;fill-opacity:1;fill-rule:evenodd;stroke:none"
           d="M 0,0 C -1.874,1.521 -3.844,2.883 -5.914,4.08 -4.44,4.177 -3.033,4.362 -1.79,4.599 0.584,3.277 2.534,1.954 3.777,0.734 3.777,0.734 2.471,0.348 0,0" />
      </g>
    </g>
  </g>
</svg>
