<?xml version="1.0" encoding="UTF-8" standalone="no"?>
<!-- Created with Inkscape (http://www.inkscape.org/) -->

<svg
   xmlns:dc="http://purl.org/dc/elements/1.1/"
   xmlns:cc="http://creativecommons.org/ns#"
   xmlns:rdf="http://www.w3.org/1999/02/22-rdf-syntax-ns#"
   xmlns:svg="http://www.w3.org/2000/svg"
   xmlns="http://www.w3.org/2000/svg"
   xmlns:sodipodi="http://sodipodi.sourceforge.net/DTD/sodipodi-0.dtd"
   xmlns:inkscape="http://www.inkscape.org/namespaces/inkscape"
   width="45mm"
   height="45mm"
   viewBox="0 0 45 45"
   version="1.1"
   id="svg2965"
   inkscape:version="0.92.3 (2405546, 2018-03-11)"
   sodipodi:docname="g4.svg">
  <defs
     id="defs2959" />
  <sodipodi:namedview
     id="base"
     pagecolor="#ffffff"
     bordercolor="#666666"
     borderopacity="1.0"
     inkscape:pageopacity="0.0"
     inkscape:pageshadow="2"
     inkscape:zoom="1.979899"
     inkscape:cx="-4.1117179"
     inkscape:cy="92.343565"
     inkscape:document-units="mm"
     inkscape:current-layer="layer1"
     showgrid="false"
     units="mm"
     width="50mm"
     inkscape:window-width="958"
     inkscape:window-height="1023"
     inkscape:window-x="0"
     inkscape:window-y="0"
     inkscape:window-maximized="0" />
  <metadata
     id="metadata2962">
    <rdf:RDF>
      <cc:Work
         rdf:about="">
        <dc:format>image/svg+xml</dc:format>
        <dc:type
           rdf:resource="http://purl.org/dc/dcmitype/StillImage" />
        <dc:title></dc:title>
      </cc:Work>
    </rdf:RDF>
  </metadata>
  <g
     inkscape:label="Layer 1"
     inkscape:groupmode="layer"
     id="layer1"
     transform="translate(0,-252)">
    <g
       transform="matrix(0.35277777,0,0,-0.35277777,-65.012382,364.432)"
       id="g4285">
      <g
         transform="translate(222.4013,272.9312)"
         id="g468">
        <path
           inkscape:connector-curvature="0"
           id="path470"
           style="fill:#b72358;fill-opacity:1;fill-rule:evenodd;stroke:none"
           d="M 0,0 5.065,-31.958 0,-70.069 l -19.983,31.027 0.536,53.9 z" />
      </g>
      <g
         transform="translate(222.4013,272.9312)"
         id="g472">
        <path
           inkscape:connector-curvature="0"
           id="path474"
           style="fill:#ef3e68;fill-opacity:1;fill-rule:evenodd;stroke:none"
           d="M 0,0 70.069,1.586 V -68.483 L 0,-70.069 Z" />
      </g>
      <g
         transform="translate(264.3716,203.813)"
         id="g476">
        <path
           inkscape:connector-curvature="0"
           id="path478"
           style="fill:#c2dd39;fill-opacity:1;fill-rule:evenodd;stroke:none"
           d="M 0,0 -13.872,-0.314 V 55.652 L -7.5,55.782 0,55.934 Z" />
      </g>
      <g
         transform="translate(295.7699,259.32)"
         id="g480">
        <path
           inkscape:connector-curvature="0"
           id="path482"
           style="fill:#ef3e68;fill-opacity:1;fill-rule:evenodd;stroke:none"
           d="M 0,0 -75.521,-1.466 V 13.981 L -44.276,20.17 0,16.08 Z" />
      </g>
      <g
         transform="translate(265.3258,258.7296)"
         id="g484">
        <path
           inkscape:connector-curvature="0"
           id="path486"
           style="fill:#ceea44;fill-opacity:1;fill-rule:evenodd;stroke:none"
           d="M 0,0 -14.826,-0.288 -14.634,19.66 0,19.378 Z" />
      </g>
      <g
         transform="translate(220.2493,257.8542)"
         id="g488">
        <path
           inkscape:connector-curvature="0"
           id="path490"
           style="fill:#a70f45;fill-opacity:1;fill-rule:evenodd;stroke:none"
           d="m 0,0 -19.886,17.234 0.04,14.737 L 0,15.447 Z" />
      </g>
      <g
         transform="translate(200.3631,289.8162)"
         id="g492">
        <path
           inkscape:connector-curvature="0"
           id="path494"
           style="fill:#f66687;fill-opacity:1;fill-rule:evenodd;stroke:none"
           d="M 0,0 63.019,1.738 95.407,-14.627 19.886,-16.515 Z" />
      </g>
      <g
         transform="translate(250.4996,258.4412)"
         id="g496">
        <path
           inkscape:connector-curvature="0"
           id="path498"
           style="fill:#b72358;fill-opacity:1;fill-rule:evenodd;stroke:none"
           d="m 0,0 v -3.231 l -25.197,-0.58 -2.901,-0.068 v 3.334 l 2.375,0.048 z" />
      </g>
      <g
         transform="translate(250.4996,255.21)"
         id="g500">
        <path
           inkscape:connector-curvature="0"
           id="path502"
           style="fill:#aac32f;fill-opacity:1;fill-rule:evenodd;stroke:none"
           d="m 0,0 v 3.231 l 13.872,0.27 V 0.319 Z" />
      </g>
      <g
         transform="translate(264.3716,255.5287)"
         id="g504">
        <path
           inkscape:connector-curvature="0"
           id="path506"
           style="fill:#b72358;fill-opacity:1;fill-rule:evenodd;stroke:none"
           d="M 0,0 V 3.182 L 0.954,3.201 28.098,3.727 V 0.648 Z" />
      </g>
      <g
         transform="translate(213.3551,279.0278)"
         id="g508">
        <path
           inkscape:connector-curvature="0"
           id="path510"
           style="fill:#aac32f;fill-opacity:1;fill-rule:evenodd;stroke:none"
           d="M 0,0 -0.07,-15.139 -6.92,-9.203 -6.874,5.708 -1.664,1.4 Z" />
      </g>
      <g
         transform="translate(214.5918,262.757)"
         id="g512">
        <path
           inkscape:connector-curvature="0"
           id="path514"
           style="fill:#aac32f;fill-opacity:1;fill-rule:evenodd;stroke:none"
           d="m 0,0 v -47.771 l -6.767,10.512 V 5.867 l 5.461,-4.735 z" />
      </g>
      <g
         transform="translate(207.8243,268.6237)"
         id="g516">
        <path
           inkscape:connector-curvature="0"
           id="path518"
           style="fill:#951643;fill-opacity:1;fill-rule:evenodd;stroke:none"
           d="m 0,0 v -4.447 l -5.062,4.141 0.046,4.65 3.627,-3.143 z" />
      </g>
      <g
         transform="translate(207.8243,264.1766)"
         id="g520">
        <path
           inkscape:connector-curvature="0"
           id="path522"
           style="fill:#8aa01e;fill-opacity:1;fill-rule:evenodd;stroke:none"
           d="M 0,0 V 4.447 L 5.461,-0.288 6.767,-1.42 v -4.116 z" />
      </g>
      <g
         transform="translate(214.5918,258.6408)"
         id="g524">
        <path
           inkscape:connector-curvature="0"
           id="path526"
           style="fill:#951643;fill-opacity:1;fill-rule:evenodd;stroke:none"
           d="M 0,0 V 4.116 L 5.657,-0.787 7.81,-0.744 V -4.078 L 4.916,-4.022 Z" />
      </g>
      <g
         transform="translate(206.9251,284.7549)"
         id="g528">
        <path
           inkscape:connector-curvature="0"
           id="path530"
           style="fill:#e0fb5d;fill-opacity:1;fill-rule:evenodd;stroke:none"
           d="m 0,0 26.433,1.167 -7.698,4.592 12.919,0.357 6.099,-3.679 25.338,1.011 10.598,-5.354 -26.775,-1.122 4.518,-2.87 0.996,-0.634 5.973,-3.794 -14.677,-0.366 -6.617,3.95 -3.359,2.004 L 7.45,-5.69 6.43,-5.727 -0.444,-0.019 Z" />
      </g>
      <g
         transform="translate(212.5818,298.0745)"
         id="g532">
        <path
           inkscape:connector-curvature="0"
           id="path534"
           style="fill:#e0fb5d;fill-opacity:1;fill-rule:evenodd;stroke:none"
           d="m 0,0 c 0,0 18.525,1.973 30.145,-10.311 1.637,-1.731 4.068,-3.332 5.315,-5.693 l 2.417,4.746 C 33.79,-0.556 23.231,7.716 10.35,8.914 5.453,7.07 3.719,4.554 0,0" />
      </g>
      <g
         transform="translate(212.5818,298.0745)"
         id="g536">
        <path
           inkscape:connector-curvature="0"
           id="path538"
           style="fill:#c2dd39;fill-opacity:1;fill-rule:evenodd;stroke:none"
           d="m 0,0 c 0,0 4.848,-19.54 35.46,-16.004 -1.188,2.249 -2.59,4.191 -4.135,5.864 C 19.734,2.426 0,0 0,0" />
      </g>
      <g
         transform="translate(224.193,297.6703)"
         id="g540">
        <path
           inkscape:connector-curvature="0"
           id="path542"
           style="fill:#f9f9f6;fill-opacity:1;fill-rule:evenodd;stroke:none"
           d="M 0,0 C 2.007,-4.97 11.668,-8.652 18.197,-8.217 12.693,-3.122 5.782,-0.912 0,0" />
      </g>
      <g
         transform="translate(213.2513,296.247)"
         id="g544">
        <path
           inkscape:connector-curvature="0"
           id="path546"
           style="fill:#aac32f;fill-opacity:1;fill-rule:evenodd;stroke:none"
           d="M 0,0 C 4.497,0.223 8.471,0.147 11.92,-0.234 11.504,0.298 11.173,0.852 10.942,1.423 4.417,2.451 -0.67,1.826 -0.67,1.826 -0.67,1.826 -0.494,1.12 0,0" />
      </g>
      <g
         transform="translate(241.4038,288.3457)"
         id="g548">
        <path
           inkscape:connector-curvature="0"
           id="path550"
           style="fill:#aac32f;fill-opacity:1;fill-rule:evenodd;stroke:none"
           d="M 0,0 C 2.07,-2 3.79,-4.142 5.166,-6.429 5.65,-6.384 6.142,-6.333 6.638,-6.275 5.45,-4.027 4.048,-2.085 2.503,-0.41 2.364,-0.256 2.22,-0.106 2.077,0.041 1.72,0.411 1.356,0.766 0.986,1.108 0.543,1.077 0.088,1.066 -0.379,1.075 -0.647,1.078 -0.921,1.089 -1.195,1.105 -0.785,0.743 -0.386,0.373 0,0" />
      </g>
      <g
         transform="translate(212.8201,262.92)"
         id="g552">
        <path
           inkscape:connector-curvature="0"
           id="path554"
           style="fill:#d2ec53;fill-opacity:1;fill-rule:evenodd;stroke:none"
           d="m 0,0 c 10.75,17.772 33.75,18.996 33.75,18.996 -0.756,1.475 -3.203,4.268 -3.712,4.811 C 19.467,26.162 4.117,20.827 -4.147,11.831 -3.005,7.5 -1.558,4.222 0,0" />
      </g>
      <g
         transform="translate(283.5491,298.0745)"
         id="g556">
        <path
           inkscape:connector-curvature="0"
           id="path558"
           style="fill:#e0fb5d;fill-opacity:1;fill-rule:evenodd;stroke:none"
           d="m 0,0 c 0,0 -18.525,1.973 -30.145,-10.311 -1.636,-1.731 -4.067,-3.332 -5.315,-5.693 l -2.415,4.746 C -33.79,-0.556 -23.23,7.716 -10.35,8.914 -5.452,7.07 -3.719,4.554 0,0" />
      </g>
      <g
         transform="translate(283.5491,298.0745)"
         id="g560">
        <path
           inkscape:connector-curvature="0"
           id="path562"
           style="fill:#c2dd39;fill-opacity:1;fill-rule:evenodd;stroke:none"
           d="m 0,0 c 0,0 -4.847,-19.54 -35.46,-16.004 1.189,2.249 2.591,4.191 4.136,5.864 C -19.734,2.426 0,0 0,0" />
      </g>
      <g
         transform="translate(271.9387,297.6703)"
         id="g564">
        <path
           inkscape:connector-curvature="0"
           id="path566"
           style="fill:#f9f9f6;fill-opacity:1;fill-rule:evenodd;stroke:none"
           d="M 0,0 C -2.007,-4.97 -11.668,-8.652 -18.197,-8.217 -12.694,-3.122 -5.784,-0.912 0,0" />
      </g>
      <g
         transform="translate(282.8795,296.247)"
         id="g568">
        <path
           inkscape:connector-curvature="0"
           id="path570"
           style="fill:#aac32f;fill-opacity:1;fill-rule:evenodd;stroke:none"
           d="m 0,0 c -4.498,0.223 -8.47,0.147 -11.919,-0.234 0.416,0.532 0.747,1.086 0.978,1.657 C -4.416,2.451 0.67,1.826 0.67,1.826 0.67,1.826 0.495,1.12 0,0" />
      </g>
      <g
         transform="translate(254.7279,288.3457)"
         id="g572">
        <path
           inkscape:connector-curvature="0"
           id="path574"
           style="fill:#aac32f;fill-opacity:1;fill-rule:evenodd;stroke:none"
           d="m 0,0 c -2.069,-2 -3.79,-4.142 -5.166,-6.429 -0.484,0.045 -0.976,0.096 -1.473,0.154 1.189,2.248 2.591,4.19 4.136,5.865 0.14,0.154 0.284,0.304 0.426,0.451 0.357,0.37 0.721,0.725 1.091,1.067 C -0.545,1.077 -0.088,1.066 0.379,1.075 0.647,1.078 0.92,1.089 1.195,1.105 0.784,0.743 0.386,0.373 0,0" />
      </g>
      <g
         transform="translate(283.3116,262.92)"
         id="g576">
        <path
           inkscape:connector-curvature="0"
           id="path578"
           style="fill:#d2ec53;fill-opacity:1;fill-rule:evenodd;stroke:none"
           d="m 0,0 c -10.75,17.772 -33.75,18.996 -33.75,18.996 0.756,1.475 3.203,4.268 3.713,4.811 10.57,2.355 25.92,-2.98 34.184,-11.976 C 3.004,7.5 1.558,4.222 0,0" />
      </g>
    </g>
  </g>
</svg>
