<?xml version="1.0" encoding="UTF-8" standalone="no"?>
<!-- Created with Inkscape (http://www.inkscape.org/) -->

<svg
   xmlns:dc="http://purl.org/dc/elements/1.1/"
   xmlns:cc="http://creativecommons.org/ns#"
   xmlns:rdf="http://www.w3.org/1999/02/22-rdf-syntax-ns#"
   xmlns:svg="http://www.w3.org/2000/svg"
   xmlns="http://www.w3.org/2000/svg"
   xmlns:sodipodi="http://sodipodi.sourceforge.net/DTD/sodipodi-0.dtd"
   xmlns:inkscape="http://www.inkscape.org/namespaces/inkscape"
   width="45mm"
   height="45mm"
   viewBox="0 0 45 45"
   version="1.1"
   id="svg2965"
   inkscape:version="0.92.3 (2405546, 2018-03-11)"
   sodipodi:docname="g6.svg">
  <defs
     id="defs2959" />
  <sodipodi:namedview
     id="base"
     pagecolor="#ffffff"
     bordercolor="#666666"
     borderopacity="1.0"
     inkscape:pageopacity="0.0"
     inkscape:pageshadow="2"
     inkscape:zoom="1.979899"
     inkscape:cx="-4.1117179"
     inkscape:cy="92.343565"
     inkscape:document-units="mm"
     inkscape:current-layer="layer1"
     showgrid="false"
     units="mm"
     width="50mm"
     inkscape:window-width="958"
     inkscape:window-height="1023"
     inkscape:window-x="0"
     inkscape:window-y="0"
     inkscape:window-maximized="0" />
  <metadata
     id="metadata2962">
    <rdf:RDF>
      <cc:Work
         rdf:about="">
        <dc:format>image/svg+xml</dc:format>
        <dc:type
           rdf:resource="http://purl.org/dc/dcmitype/StillImage" />
        <dc:title></dc:title>
      </cc:Work>
    </rdf:RDF>
  </metadata>
  <g
     inkscape:label="Layer 1"
     inkscape:groupmode="layer"
     id="layer1"
     transform="translate(0,-252)">
    <g
       transform="matrix(0.35277777,0,0,-0.35277777,-17.269802,314.42726)"
       id="g4891">
      <g
         transform="translate(138.3495,131.7153)"
         id="g152">
        <path
           inkscape:connector-curvature="0"
           id="path154"
           style="fill:#af2917;fill-opacity:1;fill-rule:evenodd;stroke:none"
           d="M 0,0 -5.056,-31.837 0,-69.939 19.943,-39.212 19.409,14.591 Z" />
      </g>
      <g
         transform="translate(138.3495,131.7153)"
         id="g156">
        <path
           inkscape:connector-curvature="0"
           id="path158"
           style="fill:#d23b27;fill-opacity:1;fill-rule:evenodd;stroke:none"
           d="M 0,0 -69.936,2.438 V -67.5 L 0,-69.939 Z" />
      </g>
      <g
         transform="translate(96.4571,63.2375)"
         id="g160">
        <path
           inkscape:connector-curvature="0"
           id="path162"
           style="fill:#efb735;fill-opacity:1;fill-rule:evenodd;stroke:none"
           d="M 0,0 13.846,-0.483 V 55.379 L 7.487,55.586 0,55.829 Z" />
      </g>
      <g
         transform="translate(65.1201,119.0245)"
         id="g164">
        <path
           inkscape:connector-curvature="0"
           id="path166"
           style="fill:#d23b27;fill-opacity:1;fill-rule:evenodd;stroke:none"
           d="M 0,0 75.376,-2.385 V 13.033 L 44.192,19.592 0,15.84 Z" />
      </g>
      <g
         transform="translate(95.5037,118.0628)"
         id="g168">
        <path
           inkscape:connector-curvature="0"
           id="path170"
           style="fill:#efb735;fill-opacity:1;fill-rule:evenodd;stroke:none"
           d="M 0,0 14.8,-0.467 14.609,19.446 0,19.342 Z" />
      </g>
      <g
         transform="translate(140.4965,116.6399)"
         id="g172">
        <path
           inkscape:connector-curvature="0"
           id="path174"
           style="fill:#af2917;fill-opacity:1;fill-rule:evenodd;stroke:none"
           d="M 0,0 19.85,16.958 19.814,31.67 8.562,22.391 0,15.418 Z" />
      </g>
      <g
         transform="translate(160.3461,148.2978)"
         id="g176">
        <path
           inkscape:connector-curvature="0"
           id="path178"
           style="fill:#e74631;fill-opacity:1;fill-rule:evenodd;stroke:none"
           d="M 0,0 -62.902,2.505 -95.226,-13.434 -19.85,-16.24 Z" />
      </g>
      <g
         transform="translate(110.3033,117.5953)"
         id="g180">
        <path
           inkscape:connector-curvature="0"
           id="path182"
           style="fill:#af2917;fill-opacity:1;fill-rule:evenodd;stroke:none"
           d="m 0,0 v -3.226 l 25.151,-0.886 2.895,-0.102 v 3.327 l -2.37,0.075 z" />
      </g>
      <g
         transform="translate(110.3033,114.3695)"
         id="g184">
        <path
           inkscape:connector-curvature="0"
           id="path186"
           style="fill:#e5a21c;fill-opacity:1;fill-rule:evenodd;stroke:none"
           d="M 0,0 V 3.226 L -13.846,3.664 V 0.488 Z" />
      </g>
      <g
         transform="translate(96.4571,114.8574)"
         id="g188">
        <path
           inkscape:connector-curvature="0"
           id="path190"
           style="fill:#af2917;fill-opacity:1;fill-rule:evenodd;stroke:none"
           d="M 0,0 V 3.176 L -0.953,3.205 -28.044,4.063 V 0.989 Z" />
      </g>
      <g
         transform="translate(147.379,137.6895)"
         id="g192">
        <path
           inkscape:connector-curvature="0"
           id="path194"
           style="fill:#e5a21c;fill-opacity:1;fill-rule:evenodd;stroke:none"
           d="M 0,0 0.068,-15.112 6.906,-9.271 6.86,5.612 Z" />
      </g>
      <g
         transform="translate(146.1436,121.4645)"
         id="g196">
        <path
           inkscape:connector-curvature="0"
           id="path198"
           style="fill:#e5a21c;fill-opacity:1;fill-rule:evenodd;stroke:none"
           d="m 0,0 v -47.681 l 6.755,10.408 V 5.771 L 1.304,1.112 Z" />
      </g>
      <g
         transform="translate(152.8982,127.2353)"
         id="g200">
        <path
           inkscape:connector-curvature="0"
           id="path202"
           style="fill:#951200;fill-opacity:1;fill-rule:evenodd;stroke:none"
           d="M 0,0 V -4.437 L 5.053,-0.367 5.007,4.277 1.387,1.183 Z" />
      </g>
      <g
         transform="translate(152.8982,122.7978)"
         id="g204">
        <path
           inkscape:connector-curvature="0"
           id="path206"
           style="fill:#c87a12;fill-opacity:1;fill-rule:evenodd;stroke:none"
           d="M 0,0 V 4.437 L -5.451,-0.221 -6.755,-1.333 V -5.442 Z" />
      </g>
      <g
         transform="translate(146.1436,117.3553)"
         id="g208">
        <path
           inkscape:connector-curvature="0"
           id="path210"
           style="fill:#951200;fill-opacity:1;fill-rule:evenodd;stroke:none"
           d="m 0,0 v 4.109 l -5.647,-4.824 -2.147,0.068 v -3.327 l 2.887,0.02 z" />
      </g>
      <g
         transform="translate(153.7948,143.3265)"
         id="g212">
        <path
           inkscape:connector-curvature="0"
           id="path214"
           style="fill:#f1ce41;fill-opacity:1;fill-rule:evenodd;stroke:none"
           d="m 0,0 -26.381,1.486 7.682,4.492 -12.893,0.514 -6.089,-3.598 -25.289,1.318 -10.579,-5.216 26.724,-1.447 -4.509,-2.808 -0.995,-0.621 -5.962,-3.714 14.649,-0.544 6.606,3.861 3.353,1.96 26.248,-1.272 1.019,-0.048 6.86,5.612 z" />
      </g>
      <g
         transform="translate(128.5191,129.939)"
         id="g216">
        <path
           inkscape:connector-curvature="0"
           id="path218"
           style="fill:#f5f4eb;fill-opacity:1;fill-rule:evenodd;stroke:none"
           d="m 0,0 c -1.147,-0.03 -2.077,-0.984 -2.077,-2.131 0,-1.146 0.93,-2.053 2.077,-2.023 1.147,0.029 2.077,0.984 2.077,2.131 C 2.077,-0.877 1.147,0.028 0,0" />
      </g>
      <g
         transform="translate(115.5766,130.5178)"
         id="g220">
        <path
           inkscape:connector-curvature="0"
           id="path222"
           style="fill:#f5f4eb;fill-opacity:1;fill-rule:evenodd;stroke:none"
           d="m 0,0 c -1.147,-0.03 -2.076,-0.984 -2.076,-2.13 0,-1.147 0.929,-2.054 2.076,-2.024 1.147,0.029 2.077,0.983 2.077,2.131 C 2.077,-0.877 1.147,0.029 0,0" />
      </g>
      <g
         transform="translate(91.2837,130.9357)"
         id="g224">
        <path
           inkscape:connector-curvature="0"
           id="path226"
           style="fill:#f5f4eb;fill-opacity:1;fill-rule:evenodd;stroke:none"
           d="m 0,0 c -1.147,-0.03 -2.076,-0.984 -2.076,-2.131 0,-1.146 0.929,-2.051 2.076,-2.023 1.147,0.031 2.077,0.984 2.077,2.131 C 2.077,-0.876 1.147,0.03 0,0" />
      </g>
      <g
         transform="translate(77.96,131.7828)"
         id="g228">
        <path
           inkscape:connector-curvature="0"
           id="path230"
           style="fill:#f5f4eb;fill-opacity:1;fill-rule:evenodd;stroke:none"
           d="m 0,0 c -1.147,-0.028 -2.077,-0.983 -2.077,-2.13 0,-1.148 0.93,-2.054 2.077,-2.023 1.147,0.028 2.076,0.983 2.076,2.13 C 2.076,-0.877 1.147,0.03 0,0" />
      </g>
      <g
         transform="translate(157.6936,142.7478)"
         id="g232">
        <path
           inkscape:connector-curvature="0"
           id="path234"
           style="fill:#f5f4eb;fill-opacity:1;fill-rule:evenodd;stroke:none"
           d="M 0,0 C -1.201,-0.305 -1.262,-2.644 0,-2.324 1.535,-1.935 1.524,0.386 0,0" />
      </g>
      <g
         transform="translate(121.9203,123.7016)"
         id="g236">
        <path
           inkscape:connector-curvature="0"
           id="path238"
           style="fill:#f5f4eb;fill-opacity:1;fill-rule:evenodd;stroke:none"
           d="m 0,0 c -1.147,-0.03 -2.076,-0.983 -2.076,-2.13 0,-1.146 0.929,-2.053 2.076,-2.024 1.148,0.029 2.077,0.983 2.077,2.129 C 2.077,-0.878 1.148,0.03 0,0" />
      </g>
      <g
         transform="translate(135.352,123.2149)"
         id="g240">
        <path
           inkscape:connector-curvature="0"
           id="path242"
           style="fill:#f5f4eb;fill-opacity:1;fill-rule:evenodd;stroke:none"
           d="m 0,0 c -1.147,-0.03 -2.077,-0.982 -2.077,-2.13 0,-1.146 0.93,-2.053 2.077,-2.023 1.147,0.028 2.077,0.983 2.077,2.131 C 2.077,-0.875 1.147,0.03 0,0" />
      </g>
      <g
         transform="translate(84.8788,124.9487)"
         id="g244">
        <path
           inkscape:connector-curvature="0"
           id="path246"
           style="fill:#f5f4eb;fill-opacity:1;fill-rule:evenodd;stroke:none"
           d="m 0,0 c -1.148,-0.03 -2.077,-0.984 -2.077,-2.13 0,-1.147 0.929,-2.055 2.077,-2.024 1.147,0.029 2.076,0.984 2.076,2.131 C 2.076,-0.876 1.147,0.03 0,0" />
      </g>
      <g
         transform="translate(71.2005,125.8653)"
         id="g248">
        <path
           inkscape:connector-curvature="0"
           id="path250"
           style="fill:#f5f4eb;fill-opacity:1;fill-rule:evenodd;stroke:none"
           d="m 0,0 c -1.147,-0.028 -2.076,-0.984 -2.076,-2.131 0,-1.146 0.929,-2.052 2.076,-2.023 1.148,0.029 2.077,0.984 2.077,2.131 C 2.077,-0.876 1.148,0.03 0,0" />
      </g>
      <g
         transform="translate(128.5866,112.6404)"
         id="g252">
        <path
           inkscape:connector-curvature="0"
           id="path254"
           style="fill:#f5f4eb;fill-opacity:1;fill-rule:evenodd;stroke:none"
           d="m 0,0 c -1.147,-0.03 -2.076,-0.984 -2.076,-2.13 0,-1.147 0.929,-2.053 2.076,-2.024 1.147,0.03 2.077,0.984 2.077,2.131 C 2.077,-0.876 1.147,0.028 0,0" />
      </g>
      <g
         transform="translate(115.6853,112.8012)"
         id="g256">
        <path
           inkscape:connector-curvature="0"
           id="path258"
           style="fill:#f5f4eb;fill-opacity:1;fill-rule:evenodd;stroke:none"
           d="m 0,0 c -1.147,-0.028 -2.076,-0.984 -2.076,-2.131 0,-1.146 0.929,-2.051 2.076,-2.023 1.147,0.031 2.076,0.984 2.076,2.131 C 2.076,-0.876 1.147,0.031 0,0" />
      </g>
      <g
         transform="translate(91.225,113.6903)"
         id="g260">
        <path
           inkscape:connector-curvature="0"
           id="path262"
           style="fill:#f5f4eb;fill-opacity:1;fill-rule:evenodd;stroke:none"
           d="m 0,0 c -1.146,-0.029 -2.077,-0.984 -2.077,-2.13 0,-1.147 0.931,-2.053 2.077,-2.024 1.147,0.03 2.079,0.984 2.079,2.131 C 2.079,-0.876 1.147,0.031 0,0" />
      </g>
      <g
         transform="translate(78.9592,114.0095)"
         id="g264">
        <path
           inkscape:connector-curvature="0"
           id="path266"
           style="fill:#f5f4eb;fill-opacity:1;fill-rule:evenodd;stroke:none"
           d="m 0,0 c -1.147,-0.03 -2.077,-0.983 -2.077,-2.131 0,-1.146 0.93,-2.053 2.077,-2.022 1.147,0.028 2.076,0.983 2.076,2.13 C 2.076,-0.877 1.147,0.03 0,0" />
      </g>
      <g
         transform="translate(144.4982,124.8199)"
         id="g268">
        <path
           inkscape:connector-curvature="0"
           id="path270"
           style="fill:#f5f4eb;fill-opacity:1;fill-rule:evenodd;stroke:none"
           d="M 0,0 C -1.363,-0.345 -1.431,-2.996 0,-2.634 1.74,-2.193 1.726,0.437 0,0" />
      </g>
      <g
         transform="translate(84.705,105.9791)"
         id="g272">
        <path
           inkscape:connector-curvature="0"
           id="path274"
           style="fill:#f5f4eb;fill-opacity:1;fill-rule:evenodd;stroke:none"
           d="m 0,0 c -1.147,-0.028 -2.076,-0.982 -2.076,-2.13 0,-1.145 0.929,-2.052 2.076,-2.023 1.147,0.03 2.077,0.983 2.077,2.131 C 2.077,-0.875 1.147,0.031 0,0" />
      </g>
      <g
         transform="translate(122.1082,104.8395)"
         id="g276">
        <path
           inkscape:connector-curvature="0"
           id="path278"
           style="fill:#f5f4eb;fill-opacity:1;fill-rule:evenodd;stroke:none"
           d="m 0,0 c -1.147,-0.031 -2.077,-0.984 -2.077,-2.131 0,-1.147 0.93,-2.053 2.077,-2.024 1.147,0.03 2.076,0.984 2.076,2.13 C 2.076,-0.878 1.147,0.028 0,0" />
      </g>
      <g
         transform="translate(133.7799,104.7758)"
         id="g280">
        <path
           inkscape:connector-curvature="0"
           id="path282"
           style="fill:#f5f4eb;fill-opacity:1;fill-rule:evenodd;stroke:none"
           d="m 0,0 c -1.147,-0.031 -2.076,-0.984 -2.076,-2.131 0,-1.147 0.929,-2.054 2.076,-2.023 1.148,0.028 2.077,0.984 2.077,2.131 C 2.077,-0.877 1.148,0.028 0,0" />
      </g>
      <g
         transform="translate(72.4784,107.2158)"
         id="g284">
        <path
           inkscape:connector-curvature="0"
           id="path286"
           style="fill:#f5f4eb;fill-opacity:1;fill-rule:evenodd;stroke:none"
           d="m 0,0 c -1.147,-0.028 -2.076,-0.984 -2.076,-2.131 0,-1.146 0.929,-2.052 2.076,-2.023 1.147,0.031 2.077,0.984 2.077,2.131 C 2.077,-0.876 1.147,0.03 0,0" />
      </g>
      <g
         transform="translate(156.2065,122.4141)"
         id="g288">
        <path
           inkscape:connector-curvature="0"
           id="path290"
           style="fill:#f5f4eb;fill-opacity:1;fill-rule:evenodd;stroke:none"
           d="m 0,0 c -0.449,-0.098 -0.81,-0.542 -0.81,-0.988 0,-0.448 0.361,-0.73 0.81,-0.632 0.447,0.097 0.81,0.54 0.81,0.988 C 0.81,-0.184 0.447,0.099 0,0" />
      </g>
      <g
         transform="translate(157.6936,136.4503)"
         id="g292">
        <path
           inkscape:connector-curvature="0"
           id="path294"
           style="fill:#f5f4eb;fill-opacity:1;fill-rule:evenodd;stroke:none"
           d="M 0,0 C -1.201,-0.305 -1.262,-2.645 0,-2.323 1.535,-1.933 1.524,0.386 0,0" />
      </g>
      <g
         transform="translate(144.4982,130.729)"
         id="g296">
        <path
           inkscape:connector-curvature="0"
           id="path298"
           style="fill:#f5f4eb;fill-opacity:1;fill-rule:evenodd;stroke:none"
           d="M 0,0 C -1.363,-0.345 -1.431,-2.996 0,-2.632 1.74,-2.192 1.726,0.438 0,0" />
      </g>
      <g
         transform="translate(142.4986,105.4383)"
         id="g300">
        <path
           inkscape:connector-curvature="0"
           id="path302"
           style="fill:#f5f4eb;fill-opacity:1;fill-rule:evenodd;stroke:none"
           d="m 0,0 c -0.622,-0.183 -1.127,-1.03 -1.127,-1.891 0,-0.861 0.505,-1.41 1.127,-1.227 0.621,0.183 1.126,1.03 1.126,1.89 C 1.126,-0.366 0.621,0.183 0,0" />
      </g>
      <g
         transform="translate(142.4986,112.317)"
         id="g304">
        <path
           inkscape:connector-curvature="0"
           id="path306"
           style="fill:#f5f4eb;fill-opacity:1;fill-rule:evenodd;stroke:none"
           d="m 0,0 c -0.622,-0.183 -1.127,-1.03 -1.127,-1.891 0,-0.86 0.505,-1.409 1.127,-1.226 0.621,0.183 1.126,1.029 1.126,1.89 C 1.126,-0.366 0.621,0.183 0,0" />
      </g>
      <g
         transform="translate(156.0069,115.3808)"
         id="g308">
        <path
           inkscape:connector-curvature="0"
           id="path310"
           style="fill:#f5f4eb;fill-opacity:1;fill-rule:evenodd;stroke:none"
           d="m 0,0 c -0.447,-0.098 -0.811,-0.542 -0.811,-0.989 0,-0.447 0.364,-0.73 0.811,-0.631 0.447,0.098 0.81,0.54 0.81,0.988 C 0.81,-0.184 0.447,0.099 0,0" />
      </g>
      <g
         transform="translate(127.5591,96.2079)"
         id="g312">
        <path
           inkscape:connector-curvature="0"
           id="path314"
           style="fill:#f5f4eb;fill-opacity:1;fill-rule:evenodd;stroke:none"
           d="m 0,0 c -1.147,-0.031 -2.077,-0.984 -2.077,-2.131 0,-1.146 0.93,-2.052 2.077,-2.023 1.147,0.029 2.076,0.984 2.076,2.131 C 2.076,-0.876 1.147,0.028 0,0" />
      </g>
      <g
         transform="translate(115.6853,97.4954)"
         id="g316">
        <path
           inkscape:connector-curvature="0"
           id="path318"
           style="fill:#f5f4eb;fill-opacity:1;fill-rule:evenodd;stroke:none"
           d="m 0,0 c -1.147,-0.028 -2.076,-0.983 -2.076,-2.128 0,-1.147 0.929,-2.054 2.076,-2.025 1.147,0.03 2.076,0.983 2.076,2.13 C 2.076,-0.875 1.147,0.03 0,0" />
      </g>
      <g
         transform="translate(91.225,99.4016)"
         id="g320">
        <path
           inkscape:connector-curvature="0"
           id="path322"
           style="fill:#f5f4eb;fill-opacity:1;fill-rule:evenodd;stroke:none"
           d="m 0,0 c -1.146,-0.03 -2.077,-0.984 -2.077,-2.131 0,-1.146 0.931,-2.052 2.077,-2.023 1.147,0.031 2.079,0.984 2.079,2.131 C 2.079,-0.876 1.147,0.03 0,0" />
      </g>
      <g
         transform="translate(78.9592,99.7204)"
         id="g324">
        <path
           inkscape:connector-curvature="0"
           id="path326"
           style="fill:#f5f4eb;fill-opacity:1;fill-rule:evenodd;stroke:none"
           d="m 0,0 c -1.147,-0.028 -2.077,-0.984 -2.077,-2.13 0,-1.147 0.93,-2.053 2.077,-2.024 1.147,0.031 2.076,0.984 2.076,2.131 C 2.076,-0.876 1.147,0.03 0,0" />
      </g>
      <g
         transform="translate(84.705,91.8817)"
         id="g328">
        <path
           inkscape:connector-curvature="0"
           id="path330"
           style="fill:#f5f4eb;fill-opacity:1;fill-rule:evenodd;stroke:none"
           d="m 0,0 c -1.147,-0.028 -2.076,-0.984 -2.076,-2.131 0,-1.146 0.929,-2.053 2.076,-2.023 1.147,0.028 2.077,0.984 2.077,2.131 C 2.077,-0.877 1.147,0.03 0,0" />
      </g>
      <g
         transform="translate(84.705,77.7829)"
         id="g332">
        <path
           inkscape:connector-curvature="0"
           id="path334"
           style="fill:#f5f4eb;fill-opacity:1;fill-rule:evenodd;stroke:none"
           d="m 0,0 c -1.147,-0.03 -2.076,-0.983 -2.076,-2.131 0,-1.147 0.929,-2.053 2.076,-2.023 1.147,0.029 2.077,0.984 2.077,2.131 C 2.077,-0.878 1.147,0.029 0,0" />
      </g>
      <g
         transform="translate(122.1082,90.7396)"
         id="g336">
        <path
           inkscape:connector-curvature="0"
           id="path338"
           style="fill:#f5f4eb;fill-opacity:1;fill-rule:evenodd;stroke:none"
           d="m 0,0 c -1.147,-0.028 -2.077,-0.983 -2.077,-2.131 0,-1.147 0.93,-2.053 2.077,-2.023 1.147,0.031 2.076,0.984 2.076,2.131 C 2.076,-0.877 1.147,0.03 0,0" />
      </g>
      <g
         transform="translate(122.1082,76.6417)"
         id="g340">
        <path
           inkscape:connector-curvature="0"
           id="path342"
           style="fill:#f5f4eb;fill-opacity:1;fill-rule:evenodd;stroke:none"
           d="m 0,0 c -1.147,-0.03 -2.077,-0.984 -2.077,-2.13 0,-1.147 0.93,-2.055 2.077,-2.024 1.147,0.029 2.076,0.984 2.076,2.131 C 2.076,-0.876 1.147,0.028 0,0" />
      </g>
      <g
         transform="translate(133.7799,90.6767)"
         id="g344">
        <path
           inkscape:connector-curvature="0"
           id="path346"
           style="fill:#f5f4eb;fill-opacity:1;fill-rule:evenodd;stroke:none"
           d="m 0,0 c -1.147,-0.03 -2.076,-0.984 -2.076,-2.13 0,-1.147 0.929,-2.053 2.076,-2.025 1.148,0.031 2.077,0.984 2.077,2.131 C 2.077,-0.878 1.148,0.028 0,0" />
      </g>
      <g
         transform="translate(133.7799,76.5767)"
         id="g348">
        <path
           inkscape:connector-curvature="0"
           id="path350"
           style="fill:#f5f4eb;fill-opacity:1;fill-rule:evenodd;stroke:none"
           d="m 0,0 c -1.147,-0.028 -2.076,-0.982 -2.076,-2.13 0,-1.147 0.929,-2.053 2.076,-2.022 1.148,0.029 2.077,0.982 2.077,2.129 C 2.077,-0.876 1.148,0.031 0,0" />
      </g>
      <g
         transform="translate(72.4784,93.1171)"
         id="g352">
        <path
           inkscape:connector-curvature="0"
           id="path354"
           style="fill:#f5f4eb;fill-opacity:1;fill-rule:evenodd;stroke:none"
           d="m 0,0 c -1.147,-0.03 -2.076,-0.983 -2.076,-2.131 0,-1.146 0.929,-2.053 2.076,-2.023 1.147,0.029 2.077,0.984 2.077,2.131 C 2.077,-0.877 1.147,0.03 0,0" />
      </g>
      <g
         transform="translate(72.4784,79.0192)"
         id="g356">
        <path
           inkscape:connector-curvature="0"
           id="path358"
           style="fill:#f5f4eb;fill-opacity:1;fill-rule:evenodd;stroke:none"
           d="m 0,0 c -1.147,-0.03 -2.076,-0.984 -2.076,-2.13 0,-1.147 0.929,-2.055 2.076,-2.025 1.147,0.03 2.077,0.983 2.077,2.131 C 2.077,-0.878 1.147,0.028 0,0" />
      </g>
      <g
         transform="translate(127.5591,82.1092)"
         id="g360">
        <path
           inkscape:connector-curvature="0"
           id="path362"
           style="fill:#f5f4eb;fill-opacity:1;fill-rule:evenodd;stroke:none"
           d="m 0,0 c -1.147,-0.03 -2.077,-0.984 -2.077,-2.131 0,-1.146 0.93,-2.052 2.077,-2.024 1.147,0.03 2.076,0.984 2.076,2.13 C 2.076,-0.878 1.147,0.03 0,0" />
      </g>
      <g
         transform="translate(127.5591,68.0092)"
         id="g364">
        <path
           inkscape:connector-curvature="0"
           id="path366"
           style="fill:#f5f4eb;fill-opacity:1;fill-rule:evenodd;stroke:none"
           d="m 0,0 c -1.147,-0.028 -2.077,-0.983 -2.077,-2.13 0,-1.146 0.93,-2.053 2.077,-2.023 1.147,0.03 2.076,0.983 2.076,2.13 C 2.076,-0.875 1.147,0.031 0,0" />
      </g>
      <g
         transform="translate(115.6853,83.3975)"
         id="g368">
        <path
           inkscape:connector-curvature="0"
           id="path370"
           style="fill:#f5f4eb;fill-opacity:1;fill-rule:evenodd;stroke:none"
           d="m 0,0 c -1.147,-0.029 -2.076,-0.984 -2.076,-2.13 0,-1.147 0.929,-2.053 2.076,-2.024 1.147,0.029 2.076,0.984 2.076,2.131 C 2.076,-0.876 1.147,0.03 0,0" />
      </g>
      <g
         transform="translate(115.6853,69.2988)"
         id="g372">
        <path
           inkscape:connector-curvature="0"
           id="path374"
           style="fill:#f5f4eb;fill-opacity:1;fill-rule:evenodd;stroke:none"
           d="m 0,0 c -1.147,-0.03 -2.076,-0.982 -2.076,-2.13 0,-1.147 0.929,-2.053 2.076,-2.024 1.147,0.03 2.076,0.984 2.076,2.131 C 2.076,-0.877 1.147,0.03 0,0" />
      </g>
      <g
         transform="translate(91.225,85.3029)"
         id="g376">
        <path
           inkscape:connector-curvature="0"
           id="path378"
           style="fill:#f5f4eb;fill-opacity:1;fill-rule:evenodd;stroke:none"
           d="m 0,0 c -1.146,-0.03 -2.077,-0.984 -2.077,-2.131 0,-1.146 0.931,-2.053 2.077,-2.023 1.147,0.029 2.079,0.984 2.079,2.131 C 2.079,-0.877 1.147,0.03 0,0" />
      </g>
      <g
         transform="translate(91.225,71.2029)"
         id="g380">
        <path
           inkscape:connector-curvature="0"
           id="path382"
           style="fill:#f5f4eb;fill-opacity:1;fill-rule:evenodd;stroke:none"
           d="m 0,0 c -1.146,-0.028 -2.077,-0.983 -2.077,-2.128 0,-1.147 0.931,-2.054 2.077,-2.025 1.147,0.03 2.079,0.983 2.079,2.13 C 2.079,-0.875 1.147,0.03 0,0" />
      </g>
      <g
         transform="translate(78.9592,85.6217)"
         id="g384">
        <path
           inkscape:connector-curvature="0"
           id="path386"
           style="fill:#f5f4eb;fill-opacity:1;fill-rule:evenodd;stroke:none"
           d="m 0,0 c -1.147,-0.03 -2.077,-0.982 -2.077,-2.13 0,-1.147 0.93,-2.053 2.077,-2.023 1.147,0.028 2.076,0.983 2.076,2.13 C 2.076,-0.876 1.147,0.03 0,0" />
      </g>
      <g
         transform="translate(78.9592,71.5229)"
         id="g388">
        <path
           inkscape:connector-curvature="0"
           id="path390"
           style="fill:#f5f4eb;fill-opacity:1;fill-rule:evenodd;stroke:none"
           d="m 0,0 c -1.147,-0.03 -2.077,-0.984 -2.077,-2.131 0,-1.145 0.93,-2.051 2.077,-2.023 1.147,0.029 2.076,0.984 2.076,2.131 C 2.076,-0.876 1.147,0.03 0,0" />
      </g>
      <g
         transform="translate(142.4986,97.7362)"
         id="g392">
        <path
           inkscape:connector-curvature="0"
           id="path394"
           style="fill:#f5f4eb;fill-opacity:1;fill-rule:evenodd;stroke:none"
           d="m 0,0 c -0.622,-0.183 -1.127,-1.029 -1.127,-1.89 0,-0.86 0.505,-1.411 1.127,-1.228 0.621,0.186 1.126,1.031 1.126,1.892 C 1.126,-0.366 0.621,0.184 0,0" />
      </g>
      <g
         transform="translate(142.4986,90.0354)"
         id="g396">
        <path
           inkscape:connector-curvature="0"
           id="path398"
           style="fill:#f5f4eb;fill-opacity:1;fill-rule:evenodd;stroke:none"
           d="m 0,0 c -0.622,-0.183 -1.127,-1.029 -1.127,-1.891 0,-0.86 0.505,-1.409 1.127,-1.226 0.621,0.183 1.126,1.03 1.126,1.891 C 1.126,-0.366 0.621,0.183 0,0" />
      </g>
      <g
         transform="translate(142.4986,82.3358)"
         id="g400">
        <path
           inkscape:connector-curvature="0"
           id="path402"
           style="fill:#f5f4eb;fill-opacity:1;fill-rule:evenodd;stroke:none"
           d="m 0,0 c -0.622,-0.183 -1.127,-1.031 -1.127,-1.891 0,-0.861 0.505,-1.41 1.127,-1.227 0.621,0.183 1.126,1.029 1.126,1.891 C 1.126,-0.366 0.621,0.183 0,0" />
      </g>
      <g
         transform="translate(142.4986,74.635)"
         id="g404">
        <path
           inkscape:connector-curvature="0"
           id="path406"
           style="fill:#f5f4eb;fill-opacity:1;fill-rule:evenodd;stroke:none"
           d="m 0,0 c -0.622,-0.184 -1.127,-1.031 -1.127,-1.891 0,-0.861 0.505,-1.411 1.127,-1.227 0.621,0.183 1.126,1.03 1.126,1.89 C 1.126,-0.367 0.621,0.183 0,0" />
      </g>
      <g
         transform="translate(155.9702,109.2899)"
         id="g408">
        <path
           inkscape:connector-curvature="0"
           id="path410"
           style="fill:#f5f4eb;fill-opacity:1;fill-rule:evenodd;stroke:none"
           d="m 0,0 c -0.447,-0.098 -0.811,-0.541 -0.811,-0.989 0,-0.447 0.364,-0.731 0.811,-0.633 0.447,0.1 0.81,0.541 0.81,0.989 C 0.81,-0.185 0.447,0.098 0,0" />
      </g>
      <g
         transform="translate(156.0823,102.5845)"
         id="g412">
        <path
           inkscape:connector-curvature="0"
           id="path414"
           style="fill:#f5f4eb;fill-opacity:1;fill-rule:evenodd;stroke:none"
           d="m 0,0 c -0.447,-0.098 -0.81,-0.54 -0.81,-0.988 0,-0.448 0.363,-0.73 0.81,-0.632 0.448,0.098 0.812,0.54 0.812,0.988 C 0.812,-0.184 0.448,0.099 0,0" />
      </g>
      <g
         transform="translate(156.2007,95.6987)"
         id="g416">
        <path
           inkscape:connector-curvature="0"
           id="path418"
           style="fill:#f5f4eb;fill-opacity:1;fill-rule:evenodd;stroke:none"
           d="m 0,0 c -0.447,-0.098 -0.812,-0.541 -0.812,-0.988 0,-0.448 0.365,-0.732 0.812,-0.634 0.446,0.1 0.81,0.542 0.81,0.99 C 0.81,-0.184 0.446,0.098 0,0" />
      </g>
      <g
         transform="translate(148.2165,155.669)"
         id="g420">
        <path
           inkscape:connector-curvature="0"
           id="path422"
           style="fill:#f1ce41;fill-opacity:1;fill-rule:evenodd;stroke:none"
           d="m 0,0 c 0,0 -18.526,1.974 -30.145,-10.311 -1.637,-1.73 -4.068,-3.332 -5.315,-5.693 l -2.417,4.746 C -33.79,-0.556 -23.231,7.716 -10.35,8.914 -5.453,7.07 -3.72,4.556 0,0" />
      </g>
      <g
         transform="translate(148.2165,155.669)"
         id="g424">
        <path
           inkscape:connector-curvature="0"
           id="path426"
           style="fill:#e5a21c;fill-opacity:1;fill-rule:evenodd;stroke:none"
           d="m 0,0 c 0,0 -4.849,-19.54 -35.46,-16.004 1.188,2.25 2.59,4.191 4.135,5.864 C -19.734,2.426 0,0 0,0" />
      </g>
      <g
         transform="translate(136.6049,155.2652)"
         id="g428">
        <path
           inkscape:connector-curvature="0"
           id="path430"
           style="fill:#f9f9f6;fill-opacity:1;fill-rule:evenodd;stroke:none"
           d="M 0,0 C -2.008,-4.97 -11.668,-8.652 -18.197,-8.217 -12.693,-3.122 -5.782,-0.912 0,0" />
      </g>
      <g
         transform="translate(147.5465,153.8419)"
         id="g432">
        <path
           inkscape:connector-curvature="0"
           id="path434"
           style="fill:#c87a12;fill-opacity:1;fill-rule:evenodd;stroke:none"
           d="m 0,0 c -4.497,0.223 -8.471,0.147 -11.92,-0.234 0.416,0.533 0.747,1.086 0.978,1.657 C -4.417,2.451 0.67,1.826 0.67,1.826 0.67,1.826 0.494,1.12 0,0" />
      </g>
      <g
         transform="translate(119.3941,145.9403)"
         id="g436">
        <path
           inkscape:connector-curvature="0"
           id="path438"
           style="fill:#c87a12;fill-opacity:1;fill-rule:evenodd;stroke:none"
           d="m 0,0 c -2.069,-2 -3.79,-4.142 -5.166,-6.429 -0.483,0.045 -0.976,0.096 -1.472,0.154 1.188,2.25 2.59,4.19 4.135,5.865 0.14,0.154 0.284,0.304 0.427,0.452 0.356,0.37 0.72,0.725 1.09,1.066 C -0.543,1.077 -0.087,1.067 0.379,1.075 0.647,1.078 0.921,1.089 1.195,1.107 0.785,0.743 0.386,0.375 0,0" />
      </g>
      <g
         transform="translate(147.9778,120.5149)"
         id="g440">
        <path
           inkscape:connector-curvature="0"
           id="path442"
           style="fill:#f1ce41;fill-opacity:1;fill-rule:evenodd;stroke:none"
           d="m 0,0 c -10.75,17.772 -33.75,18.996 -33.75,18.996 0.756,1.475 3.203,4.269 3.712,4.811 10.571,2.354 25.921,-2.98 34.185,-11.975 C 3.005,7.5 1.558,4.222 0,0" />
      </g>
      <g
         transform="translate(77.2488,155.669)"
         id="g444">
        <path
           inkscape:connector-curvature="0"
           id="path446"
           style="fill:#f1ce41;fill-opacity:1;fill-rule:evenodd;stroke:none"
           d="m 0,0 c 0,0 18.525,1.974 30.145,-10.311 1.636,-1.73 4.067,-3.332 5.315,-5.693 l 2.416,4.746 C 33.79,-0.556 23.23,7.716 10.35,8.914 5.452,7.07 3.719,4.556 0,0" />
      </g>
      <g
         transform="translate(77.2488,155.669)"
         id="g448">
        <path
           inkscape:connector-curvature="0"
           id="path450"
           style="fill:#e5a21c;fill-opacity:1;fill-rule:evenodd;stroke:none"
           d="m 0,0 c 0,0 4.847,-19.54 35.46,-16.004 -1.189,2.25 -2.591,4.191 -4.136,5.864 C 19.734,2.426 0,0 0,0" />
      </g>
      <g
         transform="translate(88.8592,155.2652)"
         id="g452">
        <path
           inkscape:connector-curvature="0"
           id="path454"
           style="fill:#f9f9f6;fill-opacity:1;fill-rule:evenodd;stroke:none"
           d="M 0,0 C 2.008,-4.97 11.668,-8.652 18.197,-8.217 12.693,-3.122 5.784,-0.912 0,0" />
      </g>
      <g
         transform="translate(77.9175,153.8419)"
         id="g456">
        <path
           inkscape:connector-curvature="0"
           id="path458"
           style="fill:#c87a12;fill-opacity:1;fill-rule:evenodd;stroke:none"
           d="M 0,0 C 4.497,0.223 8.471,0.147 11.92,-0.234 11.504,0.299 11.173,0.852 10.942,1.423 4.417,2.451 -0.669,1.826 -0.669,1.826 -0.669,1.826 -0.494,1.12 0,0" />
      </g>
      <g
         transform="translate(106.0699,145.9403)"
         id="g460">
        <path
           inkscape:connector-curvature="0"
           id="path462"
           style="fill:#c87a12;fill-opacity:1;fill-rule:evenodd;stroke:none"
           d="M 0,0 C 2.069,-2 3.79,-4.142 5.166,-6.429 5.65,-6.384 6.142,-6.333 6.639,-6.275 5.45,-4.025 4.048,-2.085 2.503,-0.41 2.363,-0.256 2.219,-0.106 2.076,0.042 1.72,0.412 1.356,0.767 0.986,1.108 0.545,1.077 0.088,1.067 -0.379,1.075 -0.647,1.078 -0.92,1.089 -1.195,1.107 -0.784,0.743 -0.386,0.375 0,0" />
      </g>
      <g
         transform="translate(77.4863,120.5149)"
         id="g464">
        <path
           inkscape:connector-curvature="0"
           id="path466"
           style="fill:#f1ce41;fill-opacity:1;fill-rule:evenodd;stroke:none"
           d="m 0,0 c 10.75,17.772 33.75,18.996 33.75,18.996 -0.756,1.475 -3.203,4.269 -3.712,4.811 C 19.467,26.161 4.117,20.827 -4.147,11.832 -3.004,7.5 -1.558,4.222 0,0" />
      </g>
    </g>
  </g>
</svg>
