<?xml version="1.0" encoding="UTF-8" standalone="no"?>
<!-- Created with Inkscape (http://www.inkscape.org/) -->

<svg
   xmlns:dc="http://purl.org/dc/elements/1.1/"
   xmlns:cc="http://creativecommons.org/ns#"
   xmlns:rdf="http://www.w3.org/1999/02/22-rdf-syntax-ns#"
   xmlns:svg="http://www.w3.org/2000/svg"
   xmlns="http://www.w3.org/2000/svg"
   xmlns:sodipodi="http://sodipodi.sourceforge.net/DTD/sodipodi-0.dtd"
   xmlns:inkscape="http://www.inkscape.org/namespaces/inkscape"
   width="45mm"
   height="45mm"
   viewBox="0 0 45 45"
   version="1.1"
   id="svg2965"
   inkscape:version="0.92.3 (2405546, 2018-03-11)"
   sodipodi:docname="g8.svg">
  <defs
     id="defs2959" />
  <sodipodi:namedview
     id="base"
     pagecolor="#ffffff"
     bordercolor="#666666"
     borderopacity="1.0"
     inkscape:pageopacity="0.0"
     inkscape:pageshadow="2"
     inkscape:zoom="1.979899"
     inkscape:cx="80.236019"
     inkscape:cy="92.343565"
     inkscape:document-units="mm"
     inkscape:current-layer="layer1"
     showgrid="false"
     units="mm"
     width="50mm"
     inkscape:window-width="958"
     inkscape:window-height="1023"
     inkscape:window-x="0"
     inkscape:window-y="0"
     inkscape:window-maximized="0" />
  <metadata
     id="metadata2962">
    <rdf:RDF>
      <cc:Work
         rdf:about="">
        <dc:format>image/svg+xml</dc:format>
        <dc:type
           rdf:resource="http://purl.org/dc/dcmitype/StillImage" />
        <dc:title></dc:title>
      </cc:Work>
    </rdf:RDF>
  </metadata>
  <g
     inkscape:label="Layer 1"
     inkscape:groupmode="layer"
     id="layer1"
     transform="translate(0,-252)">
    <g
       transform="matrix(0.35277777,0,0,-0.35277777,-117.4821,314.42724)"
       id="g5732">
      <g
         transform="translate(371.593,127.6557)"
         id="g1224">
        <path
           inkscape:connector-curvature="0"
           id="path1226"
           style="fill:#ef9d1a;fill-opacity:1;fill-rule:evenodd;stroke:none"
           d="M 0,0 7.286,-29.525 0,-66.019 -26.909,-40.82 V 1.355 h -1.221 l 0.158,10.387 z" />
      </g>
      <g
         transform="translate(371.593,122.4391)"
         id="g1228">
        <path
           inkscape:connector-curvature="0"
           id="path1230"
           style="fill:#f6c523;fill-opacity:1;fill-rule:evenodd;stroke:none"
           d="M 0,0 77.18,5.57 V -48.221 L 0,-60.802 Z" />
      </g>
      <g
         transform="translate(451.7083,120.5787)"
         id="g1232">
        <path
           inkscape:connector-curvature="0"
           id="path1234"
           style="fill:#f6c523;fill-opacity:1;fill-rule:evenodd;stroke:none"
           d="M 0,0 -83.212,-7.378 V 7.175 L -38.265,16.627 0,14.847 Z" />
      </g>
      <g
         transform="translate(368.496,113.2003)"
         id="g1236">
        <path
           inkscape:connector-curvature="0"
           id="path1238"
           style="fill:#ef9d1a;fill-opacity:1;fill-rule:evenodd;stroke:none"
           d="m 0,0 -26.605,12.957 0.056,13.89 L 0,14.554 Z" />
      </g>
      <g
         transform="translate(341.9473,140.0469)"
         id="g1240">
        <path
           inkscape:connector-curvature="0"
           id="path1242"
           style="fill:#f6d568;fill-opacity:1;fill-rule:evenodd;stroke:none"
           d="M 0,0 66.006,6.61 109.761,-4.622 26.55,-12.293 Z" />
      </g>
      <g
         transform="translate(358.5797,132.3482)"
         id="g1244">
        <path
           inkscape:connector-curvature="0"
           id="path1246"
           style="fill:#d23b27;fill-opacity:1;fill-rule:evenodd;stroke:none"
           d="m 0,0 -0.099,-14.271 -9.854,4.799 0.062,14.051 7.5,-3.452 z" />
      </g>
      <g
         transform="translate(360.3597,117.1628)"
         id="g1248">
        <path
           inkscape:connector-curvature="0"
           id="path1250"
           style="fill:#d23b27;fill-opacity:1;fill-rule:evenodd;stroke:none"
           d="m 0,0 v -45.007 l -9.737,9.117 V 4.741 l 7.858,-3.827 z" />
      </g>
      <g
         transform="translate(350.6227,121.9041)"
         id="g1252">
        <path
           inkscape:connector-curvature="0"
           id="path1254"
           style="fill:#d38613;fill-opacity:1;fill-rule:evenodd;stroke:none"
           d="m 0,0 v -4.19 l -5.939,2.704 v 4.379 l 3.943,-1.921 z" />
      </g>
      <g
         transform="translate(350.6227,117.7145)"
         id="g1256">
        <path
           inkscape:connector-curvature="0"
           id="path1258"
           style="fill:#af2917;fill-opacity:1;fill-rule:evenodd;stroke:none"
           d="M 0,0 V 4.19 L 7.858,0.363 9.737,-0.552 V -4.43 Z" />
      </g>
      <g
         transform="translate(360.3597,113.2841)"
         id="g1260">
        <path
           inkscape:connector-curvature="0"
           id="path1262"
           style="fill:#d38613;fill-opacity:1;fill-rule:evenodd;stroke:none"
           d="m 0,0 v 3.879 l 8.136,-3.963 3.097,0.29 V -2.935 L 7.072,-3.218 Z" />
      </g>
      <g
         transform="translate(375.7893,110.6541)"
         id="g1264">
        <path
           inkscape:connector-curvature="0"
           id="path1266"
           style="fill:#ef9d1a;fill-opacity:1;fill-rule:evenodd;stroke:none"
           d="M 0,0 72.984,6.243 V 9.664 L -0.772,3.124 -4.196,2.836 v -3.141 z" />
      </g>
      <g
         transform="translate(403.1176,130.9453)"
         id="g1268">
        <path
           inkscape:connector-curvature="0"
           id="path1270"
           style="fill:#dd412c;fill-opacity:1;fill-rule:evenodd;stroke:none"
           d="M 0,0 5.487,1.514 13.184,1.215 13.59,-61.955 0.543,-64.082 Z" />
      </g>
      <g
         transform="translate(417.3133,144.2549)"
         id="g1272">
        <path
           inkscape:connector-curvature="0"
           id="path1274"
           style="fill:#f44831;fill-opacity:1;fill-rule:evenodd;stroke:none"
           d="m 0,0 -21.937,-2.47 -9.174,2.696 -15.514,-1.555 9.529,-3.016 -30.863,-2.917 -0.665,-0.065 7.5,-3.453 2.39,-1.127 1.502,0.14 29.522,2.728 13.514,-4.271 13.184,1.216 -13.54,5.082 30.319,2.966 z" />
      </g>
      <g
         transform="translate(403.2688,113.0045)"
         id="g1276">
        <path
           inkscape:connector-curvature="0"
           id="path1278"
           style="fill:#af2917;fill-opacity:1;fill-rule:evenodd;stroke:none"
           d="M 0,0 13.148,1.124 13.127,4.442 -0.027,3.277 Z" />
      </g>
      <g
         transform="translate(425.0529,157.174)"
         id="g1280">
        <path
           inkscape:connector-curvature="0"
           id="path1282"
           style="fill:#dd412c;fill-opacity:1;fill-rule:evenodd;stroke:none"
           d="m 0,0 c -4.485,-14.57 -17.875,-21.175 -32.512,-20.399 l 2.438,5.042 c 6.814,-0.32 22.716,2.896 18.447,12.776 l 6.421,3.831 z" />
      </g>
      <g
         transform="translate(390.6867,138.7536)"
         id="g1284">
        <path
           inkscape:connector-curvature="0"
           id="path1286"
           style="fill:#f44831;fill-opacity:1;fill-rule:evenodd;stroke:none"
           d="M 0,0 C 0,0 16.567,26.458 22.748,25.962 28.929,25.468 33.254,20.893 34.366,18.42 27.632,19.349 6.489,5.375 1.854,-1.978 Z" />
      </g>
      <g
         transform="translate(423.9796,154.3865)"
         id="g1288">
        <path
           inkscape:connector-curvature="0"
           id="path1290"
           style="fill:#af2917;fill-opacity:1;fill-rule:evenodd;stroke:none"
           d="M 0,0 C 0.732,1.675 1.073,2.787 1.073,2.787 -1.313,3.118 -5.517,1.572 -10.153,-0.89 -9.877,-1.82 -9.789,-2.683 -9.859,-3.485 -6.805,-2.083 -3.52,-0.923 0,0" />
      </g>
      <g
         transform="translate(396.3855,136.9324)"
         id="g1292">
        <path
           inkscape:connector-curvature="0"
           id="path1294"
           style="fill:#af2917;fill-opacity:1;fill-rule:evenodd;stroke:none"
           d="M 0,0 C 1.473,1.913 3.077,3.693 4.814,5.332 3.357,5.088 1.946,4.944 0.682,4.888 -1.323,3.054 -2.915,1.317 -3.845,-0.157 c 0,0 1.363,-0.073 3.845,0.157" />
      </g>
      <g
         transform="translate(359.2056,157.174)"
         id="g1296">
        <path
           inkscape:connector-curvature="0"
           id="path1298"
           style="fill:#dd412c;fill-opacity:1;fill-rule:evenodd;stroke:none"
           d="m 0,0 c 4.485,-14.57 17.876,-21.175 32.512,-20.399 l -2.437,5.042 C 23.261,-15.677 7.36,-12.461 11.627,-2.581 L 5.206,1.25 Z" />
      </g>
      <g
         transform="translate(393.5734,138.7536)"
         id="g1300">
        <path
           inkscape:connector-curvature="0"
           id="path1302"
           style="fill:#f44831;fill-opacity:1;fill-rule:evenodd;stroke:none"
           d="M 0,0 C 0,0 -16.569,26.458 -22.748,25.962 -28.929,25.468 -33.253,20.893 -34.368,18.42 -27.631,19.349 -6.49,5.375 -1.856,-1.978 Z" />
      </g>
      <g
         transform="translate(360.2793,154.3865)"
         id="g1304">
        <path
           inkscape:connector-curvature="0"
           id="path1306"
           style="fill:#af2917;fill-opacity:1;fill-rule:evenodd;stroke:none"
           d="M 0,0 C -0.731,1.675 -1.074,2.787 -1.074,2.787 1.315,3.118 5.518,1.572 10.152,-0.89 9.879,-1.82 9.789,-2.683 9.86,-3.485 6.807,-2.083 3.52,-0.923 0,0" />
      </g>
      <g
         transform="translate(387.8734,136.9324)"
         id="g1308">
        <path
           inkscape:connector-curvature="0"
           id="path1310"
           style="fill:#af2917;fill-opacity:1;fill-rule:evenodd;stroke:none"
           d="M 0,0 C -1.472,1.913 -3.075,3.693 -4.814,5.332 -3.356,5.088 -1.945,4.944 -0.682,4.888 1.324,3.054 2.916,1.317 3.844,-0.157 3.844,-0.157 2.485,-0.23 0,0" />
      </g>
      <g
         transform="translate(432.2566,91.3229)"
         id="g1312">
        <path
           inkscape:connector-curvature="0"
           id="path1314"
           style="fill:#f5f4eb;fill-opacity:1;fill-rule:evenodd;stroke:none"
           d="M 0,0 C -1.575,0.108 -2.772,1.714 -2.676,3.574 -2.582,5.435 -1.224,6.769 0.351,6.573 1.925,6.378 3.125,4.792 3.027,3.019 2.93,1.246 1.577,-0.107 0,0 m -6.947,8.851 c -1.232,0.179 -2.319,0.956 -3.073,2.091 -0.759,1.138 -1.187,2.638 -1.113,4.189 0.074,1.551 0.64,2.845 1.499,3.667 0.852,0.818 2.002,1.169 3.234,0.884 1.232,-0.282 2.315,-1.132 3.073,-2.261 0.753,-1.121 1.188,-2.524 1.114,-3.966 C -2.29,12.014 -2.862,10.782 -3.716,9.951 -4.572,9.117 -5.715,8.674 -6.947,8.851 m 14.095,5.674 c -1.332,-0.077 -2.638,0.508 -3.673,1.54 -1.04,1.034 -1.808,2.518 -2.061,4.164 -0.248,1.617 0.058,3.076 0.761,4.119 l 0.032,0.05 C 2.93,25.437 4.06,26.05 5.414,26.014 L 5.465,26.012 5.478,26.011 5.516,26.01 5.542,26.009 5.565,26.008 5.604,26.004 H 5.616 L 5.666,26.001 5.668,26 5.715,25.996 5.731,25.995 5.765,25.99 5.795,25.988 5.816,25.985 5.857,25.98 H 5.865 L 5.916,25.972 H 5.921 L 5.966,25.965 5.983,25.963 6.015,25.958 6.046,25.952 6.065,25.95 6.107,25.942 6.115,25.94 6.164,25.931 6.17,25.93 6.212,25.922 6.234,25.917 6.262,25.911 6.295,25.904 6.312,25.9 6.358,25.89 6.36,25.889 6.41,25.877 6.419,25.874 6.458,25.865 6.482,25.858 6.508,25.852 6.543,25.841 6.556,25.838 6.605,25.825 6.654,25.81 6.666,25.806 6.703,25.794 6.727,25.787 6.751,25.779 6.788,25.767 6.8,25.763 6.847,25.747 6.849,25.746 6.895,25.73 6.91,25.725 6.944,25.711 6.971,25.702 6.991,25.695 7.031,25.68 7.039,25.675 7.087,25.657 7.091,25.656 7.135,25.637 7.152,25.631 7.181,25.618 7.21,25.605 7.228,25.597 7.271,25.58 7.275,25.577 7.323,25.555 7.33,25.552 7.37,25.534 7.388,25.525 7.416,25.512 7.447,25.496 7.462,25.489 7.506,25.467 7.508,25.466 7.555,25.442 7.564,25.439 7.602,25.418 7.623,25.407 7.647,25.394 7.68,25.377 7.692,25.369 7.737,25.344 H 7.739 L 7.783,25.318 7.795,25.312 7.83,25.292 7.852,25.279 7.873,25.266 7.909,25.245 7.919,25.239 7.964,25.21 H 7.965 L 8.008,25.183 8.021,25.175 8.053,25.156 8.077,25.141 8.095,25.127 8.132,25.104 8.14,25.098 8.185,25.069 8.189,25.065 8.227,25.038 8.244,25.027 8.271,25.009 8.297,24.99 8.314,24.978 8.352,24.951 8.357,24.947 8.399,24.915 8.406,24.912 8.442,24.885 c 0.238,-0.18 0.466,-0.377 0.682,-0.591 1.03,-1.016 1.783,-2.398 2.014,-3.927 0.228,-1.531 -0.111,-2.946 -0.831,-4 C 9.586,15.31 8.48,14.601 7.148,14.525 M 16.517,1.788 v -15.401 c -0.328,-0.162 -0.667,-0.296 -1.019,-0.397 -1.82,-0.53 -3.616,-0.067 -5.038,1.142 -1.439,1.222 -2.505,3.193 -2.867,5.552 -0.359,2.364 0.059,4.644 1.054,6.377 0.983,1.716 2.54,2.909 4.406,3.206 1.205,0.192 2.39,0.002 3.464,-0.479 M -52.47,7.83 c 1.36,-0.01 2.666,0.648 3.669,1.75 1.007,1.105 1.719,2.656 1.895,4.346 0.177,1.687 -0.222,3.18 -1.012,4.211 -0.788,1.026 -1.973,1.595 -3.351,1.49 -1.378,-0.1 -2.688,-0.837 -3.696,-1.933 -0.306,-0.333 -0.586,-0.699 -0.829,-1.092 l -0.014,-0.024 -0.012,-0.018 -0.025,-0.043 v 0 l -0.024,-0.041 -0.013,-0.02 -0.012,-0.024 -0.023,-0.037 -0.002,-0.005 -0.025,-0.043 -0.008,-0.015 -0.016,-0.027 -0.019,-0.034 -0.034,-0.063 -0.018,-0.034 -0.015,-0.028 -0.008,-0.016 -0.022,-0.043 -0.003,-0.006 -0.032,-0.064 -0.01,-0.02 -0.02,-0.044 h -0.002 l -0.031,-0.064 -0.012,-0.024 -0.017,-0.041 -0.005,-0.006 -0.02,-0.044 -0.006,-0.014 -0.014,-0.033 -0.04,-0.09 -0.003,-0.01 -0.074,-0.175 -0.008,-0.025 -0.009,-0.021 -0.016,-0.046 -10e-4,-10e-4 -0.019,-0.047 -0.006,-0.019 -0.01,-0.028 -0.015,-0.041 -0.003,-0.006 -0.017,-0.047 -0.003,-0.015 -0.012,-0.032 -0.012,-0.035 -0.005,-0.014 -0.015,-0.047 -0.002,-0.009 -0.013,-0.039 -0.01,-0.03 -0.005,-0.018 -0.016,-0.048 v -0.003 l -0.013,-0.045 -0.006,-0.025 -0.008,-0.024 -0.013,-0.046 -10e-4,-0.002 -0.013,-0.05 -0.005,-0.017 -0.018,-0.071 -0.002,-0.009 -0.013,-0.049 -0.004,-0.013 -0.008,-0.037 -0.008,-0.034 -0.002,-0.014 -0.013,-0.05 v -0.008 l -0.01,-0.041 -0.007,-0.029 -0.004,-0.021 -0.01,-0.05 v -0.001 l -0.011,-0.048 -0.003,-0.024 -0.005,-0.026 -0.008,-0.046 -0.002,-0.006 -0.008,-0.049 -0.002,-0.018 -0.006,-0.033 -0.006,-0.039 -0.002,-0.011 -0.008,-0.05 -0.002,-0.013 -0.005,-0.037 -0.004,-0.035 -0.003,-0.016 -0.006,-0.052 -0.001,-0.006 -0.006,-0.045 -0.002,-0.028 -0.002,-0.023 -0.006,-0.05 c -0.154,-1.571 0.257,-2.998 1.043,-4.037 l 0.026,-0.035 0.01,-0.014 0.015,-0.019 0.023,-0.029 0.002,-0.003 0.028,-0.034 0.009,-0.01 0.016,-0.022 0.022,-0.026 0.007,-0.006 0.026,-0.033 0.008,-0.008 0.019,-0.024 0.02,-0.022 0.007,-0.008 0.03,-0.032 0.003,-0.004 0.024,-0.026 0.016,-0.018 0.012,-0.013 0.03,-0.03 10e-4,-0.002 0.027,-0.029 0.014,-0.014 0.014,-0.015 0.03,-0.029 10e-4,-10e-4 0.029,-0.028 0.011,-0.012 0.019,-0.017 0.026,-0.024 0.004,-0.005 0.03,-0.029 0.009,-0.008 0.022,-0.019 0.023,-0.021 0.008,-0.007 0.03,-0.027 0.008,-0.005 0.025,-0.022 0.021,-0.018 0.009,-0.008 0.064,-0.053 0.018,-0.014 0.014,-0.013 0.033,-0.024 V 8.692 l 0.033,-0.025 0.014,-0.011 0.018,-0.014 0.031,-0.021 0.002,-0.003 0.046,-0.033 0.02,-0.015 0.029,-0.018 0.005,-0.006 0.035,-0.023 0.009,-0.005 0.025,-0.018 0.025,-0.015 0.009,-0.006 0.033,-0.022 0.007,-0.005 0.029,-0.018 0.021,-0.012 0.014,-0.009 0.036,-0.02 0.001,-0.003 0.034,-0.018 0.019,-0.011 0.016,-0.011 0.035,-0.018 h 10e-4 l 0.036,-0.021 0.015,-0.008 0.021,-0.012 0.032,-0.015 0.005,-0.002 0.109,-0.056 0.038,-0.018 0.007,-0.002 0.03,-0.016 0.026,-0.009 0.012,-0.006 0.037,-0.016 0.006,-10e-4 0.032,-0.016 0.023,-0.007 0.093,-0.038 0.017,-0.007 0.021,-0.008 0.078,-0.027 0.014,-0.004 0.024,-0.009 0.034,-0.011 0.007,-0.002 c 0.379,-0.122 0.782,-0.188 1.206,-0.191 m 68.987,5.687 V 6.742 l -0.19,-0.031 c -1.677,-0.224 -3.276,1.207 -3.571,3.182 -0.296,1.974 0.844,3.664 2.539,3.794 0.42,0.033 0.833,-0.029 1.222,-0.17 M -61.447,-0.588 c 0.267,-0.023 0.529,-0.006 0.783,0.048 l 0.009,0.001 0.058,0.013 0.017,0.005 0.077,0.02 0.033,0.01 0.043,0.013 0.075,0.023 0.01,0.003 0.062,0.022 0.003,0.001 0.06,0.023 0.013,0.004 0.048,0.02 0.025,0.011 0.037,0.017 0.035,0.015 0.026,0.012 0.046,0.022 0.014,0.008 0.057,0.028 0.004,0.002 0.058,0.032 0.009,0.005 0.051,0.029 0.018,0.01 0.041,0.023 0.027,0.019 0.029,0.018 0.038,0.025 0.019,0.013 0.048,0.033 0.008,0.006 0.056,0.04 10e-4,0.001 0.055,0.039 0.012,0.009 0.041,0.035 0.022,0.016 0.031,0.026 0.032,0.026 0.021,0.019 0.041,0.036 0.011,0.01 0.05,0.045 10e-4,0.004 0.051,0.048 0.007,0.006 0.043,0.042 0.016,0.017 0.032,0.034 0.025,0.026 0.023,0.026 0.033,0.037 0.015,0.015 0.041,0.047 0.006,0.008 0.045,0.054 0.002,0.005 0.042,0.051 0.011,0.015 0.033,0.043 0.019,0.025 0.025,0.032 0.025,0.035 0.016,0.024 0.032,0.047 0.008,0.014 0.04,0.06 v 0.001 l 0.04,0.061 0.005,0.011 0.032,0.052 0.013,0.022 0.024,0.043 0.019,0.033 0.017,0.031 0.024,0.047 0.011,0.019 0.029,0.059 0.004,0.007 0.033,0.067 0.002,0.005 0.03,0.064 0.007,0.016 0.023,0.051 0.012,0.032 0.018,0.039 0.017,0.044 0.01,0.026 0.023,0.057 0.005,0.015 0.024,0.07 v 0.002 l 0.025,0.072 0.005,0.013 0.018,0.061 0.009,0.025 0.014,0.048 0.011,0.04 0.023,0.089 0.005,0.021 0.018,0.069 10e-4,0.007 0.017,0.078 10e-4,0.006 0.014,0.071 0.005,0.021 0.01,0.055 0.006,0.036 0.007,0.043 0.007,0.051 0.005,0.029 0.007,0.066 0.001,0.014 0.01,0.079 0.008,0.093 0.001,10e-4 0.005,0.093 V 3.02 l 0.006,0.09 v 0.005 l 0.002,0.087 V 3.207 3.293 3.3 l -10e-4,0.084 -0.001,0.007 -0.003,0.082 v 0.009 l -0.005,0.079 -0.002,0.011 -0.007,0.079 -0.001,0.01 -0.007,0.077 -10e-4,0.012 -0.01,0.074 -0.002,0.015 -0.01,0.071 -0.003,0.015 -0.012,0.071 -0.005,0.015 -0.013,0.069 -0.003,0.016 -0.014,0.067 -0.005,0.018 -0.015,0.064 -0.005,0.019 -0.018,0.062 -0.005,0.02 -0.018,0.062 -0.006,0.02 -0.019,0.058 -0.006,0.022 -0.02,0.057 -0.01,0.022 -0.018,0.056 -0.01,0.022 -0.021,0.053 -0.011,0.024 -0.02,0.051 -0.012,0.024 -0.022,0.05 -0.012,0.028 -0.022,0.045 -0.013,0.027 -0.024,0.044 -0.014,0.028 -0.024,0.043 -0.015,0.028 -0.024,0.042 -0.018,0.027 -0.023,0.04 -0.018,0.03 -0.025,0.038 -0.019,0.028 -0.024,0.037 -0.019,0.028 -0.026,0.035 -0.021,0.03 -0.026,0.032 -0.022,0.03 -0.026,0.031 -0.023,0.031 -0.025,0.028 -0.026,0.031 -0.025,0.028 -0.027,0.031 -0.026,0.026 -0.027,0.029 -0.025,0.025 -0.03,0.031 -0.025,0.024 -0.031,0.029 -0.024,0.023 -0.005,0.003 -0.053,0.046 -0.033,0.03 -0.024,0.019 -0.036,0.029 -0.024,0.018 -0.06,0.046 -0.039,0.028 -0.022,0.014 -0.063,0.043 -0.043,0.027 -0.022,0.013 -0.042,0.026 -0.021,0.012 -0.047,0.026 -0.02,0.011 -0.047,0.024 -0.02,0.01 -0.067,0.032 -0.05,0.023 -0.019,0.008 -0.052,0.023 -0.019,0.006 -0.053,0.021 -0.018,0.006 c -0.118,0.042 -0.241,0.077 -0.367,0.103 l -0.064,0.013 -0.012,0.001 -0.156,0.022 -0.068,0.009 h -0.008 l -0.072,0.004 h -0.009 l -0.073,0.004 c -1.735,0.05 -3.294,-1.467 -3.482,-3.398 -0.187,-1.933 1.05,-3.623 2.772,-3.764 m 0.783,-20.72 c -1.413,0.625 -2.62,1.758 -3.498,3.156 -1.083,1.732 -1.659,3.882 -1.442,6.074 0.216,2.191 1.192,4.048 2.578,5.322 0.697,0.641 1.497,1.144 2.362,1.456 l 0.011,0.005 0.031,0.01 0.041,0.015 0.009,0.003 0.033,0.011 0.041,0.014 0.009,0.004 0.031,0.009 0.042,0.014 0.009,0.003 0.033,0.01 0.04,0.012 0.01,0.005 0.032,0.008 0.042,0.012 0.009,0.004 0.033,0.008 0.041,0.012 0.01,0.002 0.033,0.009 0.042,0.011 0.009,0.002 0.034,0.01 0.042,0.01 0.008,0.002 0.035,0.008 0.042,0.011 0.008,0.002 0.033,0.006 0.044,0.011 0.008,0.001 0.035,0.007 0.042,0.009 0.008,0.001 0.035,0.007 0.043,0.009 0.007,10e-4 0.037,0.007 0.042,0.006 0.007,0.001 0.037,0.007 0.042,0.006 0.006,0.001 0.038,0.006 0.043,0.006 0.005,0.001 0.038,0.006 0.043,0.005 0.006,10e-4 0.037,0.005 0.045,0.004 h 0.005 l 0.038,0.006 0.045,0.004 h 0.003 l 0.039,0.003 0.044,0.005 h 0.005 l 0.04,0.004 0.043,0.002 h 0.004 l 0.04,0.003 0.044,0.003 h 0.005 l 0.04,0.003 0.045,10e-4 h 0.002 l 0.04,0.001 0.045,10e-4 h 0.004 l 0.04,0.001 0.045,0.001 h 0.002 0.043 0.043 0.004 l 0.041,-0.001 h 0.045 0.002 l 0.042,-0.001 0.046,-10e-4 h 10e-4 l 0.044,-0.001 0.043,-0.003 h 0.003 l 0.042,-0.003 0.046,-0.003 0.044,-0.002 0.045,-0.003 h 10e-4 l 0.045,-0.005 0.045,-0.004 0.09,-0.009 0.034,-0.004 0.034,-0.003 0.021,-0.004 0.012,-10e-4 0.035,-0.005 0.033,-0.003 0.01,-0.003 0.024,-0.003 0.033,-0.005 0.032,-0.005 10e-4,-0.001 0.034,-0.005 0.032,-0.005 0.02,-0.004 0.014,-10e-4 0.033,-0.007 0.034,-0.005 0.007,-0.003 0.025,-0.003 0.033,-0.007 0.031,-0.007 h 0.004 l 0.033,-0.007 0.032,-0.007 0.017,-0.004 0.016,-0.002 0.033,-0.008 0.032,-0.009 0.007,-0.001 0.026,-0.006 0.033,-0.008 0.027,-0.007 0.085,-0.023 0.016,-0.004 0.13,-0.037 0.024,-0.007 0.009,-0.001 0.063,-0.02 0.013,-0.005 0.018,-0.006 0.032,-0.011 0.033,-0.01 10e-4,-0.001 0.03,-0.009 0.054,-0.02 0.008,-0.002 0.156,-0.058 v -10e-4 l 0.278,-0.114 0.029,-0.014 0.019,-0.008 0.012,-0.006 0.147,-0.069 0.003,-0.003 0.031,-0.014 0.028,-0.014 0.017,-0.01 0.013,-0.006 c 1.04,-0.535 1.933,-1.377 2.609,-2.436 1.097,-1.717 1.638,-4.023 1.386,-6.449 -0.253,-2.423 -1.243,-4.486 -2.648,-5.802 -1.267,-1.186 -2.88,-1.756 -4.58,-1.509 l -0.015,0.002 -0.016,0.001 -0.015,0.004 -0.014,0.002 h -0.002 l -0.015,0.003 -0.015,0.002 -0.017,0.002 -0.015,0.004 -0.015,0.003 h -0.009 l -0.008,0.002 -0.016,0.002 -0.014,0.003 -0.015,0.003 -0.016,0.002 -0.016,0.004 h -0.002 l -0.013,0.002 -0.016,0.004 -0.016,0.003 -0.015,0.003 -0.016,0.002 -0.011,0.004 -0.005,0.001 -0.016,0.002 -0.015,0.004 -0.017,0.003 -0.015,0.004 -0.022,0.003 -0.009,0.003 -0.016,0.004 -0.015,0.004 -0.016,0.002 -0.016,0.005 -0.016,0.003 -0.016,0.004 -0.019,0.005 -0.017,0.005 -0.016,0.003 -0.018,0.005 -10e-4,10e-4 -0.017,0.004 -0.018,0.003 -0.016,0.006 -0.018,0.004 -0.017,0.005 h -0.002 l -0.015,0.004 -0.017,0.005 -0.017,0.006 -0.018,0.003 -0.016,0.005 -0.004,0.002 -0.013,0.004 -0.019,0.004 -0.016,0.007 -0.018,0.003 -0.017,0.006 -0.003,0.001 -0.014,0.004 -0.017,0.004 -0.016,0.006 -0.018,0.005 -0.017,0.006 -0.006,0.002 -0.011,0.004 -0.017,0.006 -0.016,0.004 -0.018,0.005 -0.016,0.007 -0.008,0.001 -0.009,0.004 -0.018,0.006 -0.016,0.006 -0.018,0.006 -0.017,0.006 -0.007,0.001 -0.008,0.005 -0.018,0.005 -0.017,0.006 -0.017,0.006 -0.017,0.006 -0.008,0.004 -0.008,0.002 -0.018,0.007 -0.015,0.006 -0.017,0.006 -0.017,0.006 -0.01,0.005 -0.007,0.002 -0.016,0.006 -0.017,0.007 -0.017,0.006 -0.016,0.007 -0.009,0.003 -0.008,0.004 -0.016,0.006 -0.018,0.007 -0.015,0.006 -0.017,0.008 -0.01,0.004 -0.006,0.002 -0.017,0.007 -0.016,0.006 -0.017,0.008 -0.016,0.007 -0.012,0.005 -0.004,0.002 -0.018,0.008 -0.015,0.005 z m 16.141,19.006 c 1.724,0.117 3.036,1.873 2.928,3.908 -0.105,2.035 -1.587,3.494 -3.31,3.28 -1.722,-0.213 -3.034,-1.948 -2.928,-3.887 0.108,-1.938 1.586,-3.42 3.31,-3.301 m 7.598,9.679 c 1.347,0.196 2.538,1.045 3.363,2.287 0.828,1.245 1.297,2.886 1.216,4.582 -0.081,1.695 -0.701,3.11 -1.638,4.01 -0.933,0.894 -2.19,1.278 -3.538,0.966 -1.348,-0.308 -2.532,-1.235 -3.36,-2.472 -0.825,-1.225 -1.301,-2.76 -1.22,-4.338 0.085,-1.575 0.709,-2.922 1.642,-3.831 0.938,-0.914 2.188,-1.399 3.535,-1.204 m -2.564,-30.239 c 1.928,-0.159 3.63,0.668 4.807,2.165 1.191,1.514 1.857,3.703 1.741,6.137 -0.119,2.435 -1.001,4.633 -2.347,6.163 -1.331,1.521 -3.131,2.396 -5.059,2.314 -1.926,-0.081 -3.617,-1.07 -4.804,-2.554 -1.178,-1.47 -1.861,-3.453 -1.743,-5.651 0.118,-2.198 1.012,-4.237 2.347,-5.786 1.343,-1.556 3.13,-2.63 5.058,-2.788 m 34.889,4.064 c -1.764,-0.146 -3.322,0.609 -4.397,1.979 -1.088,1.384 -1.699,3.386 -1.593,5.612 0.109,2.226 0.917,4.235 2.145,5.636 1.219,1.388 2.864,2.189 4.627,2.114 1.761,-0.075 3.308,-0.977 4.396,-2.335 1.075,-1.343 1.698,-3.157 1.592,-5.168 -0.108,-2.01 -0.926,-3.873 -2.146,-5.288 -1.229,-1.425 -2.864,-2.406 -4.624,-2.55" />
      </g>
      <g
         transform="translate(348.6985,104.6258)"
         id="g1316">
        <path
           inkscape:connector-curvature="0"
           id="path1318"
           style="fill:#e8e2d3;fill-opacity:1;fill-rule:evenodd;stroke:none"
           d="m 0,0 c -0.429,-0.167 -0.743,-1.184 -0.705,-2.261 0.041,-1.077 0.42,-1.764 0.847,-1.544 0.427,0.219 0.743,1.226 0.705,2.252 C 0.805,-0.527 0.429,0.169 0,0 m -1.83,-5.626 c -0.333,-0.184 -0.623,-0.71 -0.82,-1.423 -0.198,-0.716 -0.304,-1.618 -0.273,-2.515 0.032,-0.9 0.195,-1.614 0.435,-2.037 0.238,-0.419 0.555,-0.546 0.886,-0.296 0.334,0.247 0.623,0.813 0.821,1.523 0.196,0.703 0.306,1.551 0.274,2.386 -0.031,0.836 -0.195,1.514 -0.433,1.941 -0.24,0.43 -0.553,0.609 -0.89,0.421 m 19.82,-5.616 c -0.85,-0.234 -1.472,-1.642 -1.394,-3.132 0.078,-1.491 0.829,-2.441 1.674,-2.136 0.849,0.304 1.472,1.695 1.394,3.116 -0.078,1.42 -0.825,2.384 -1.674,2.152 m -3.622,-7.786 c -0.661,-0.258 -1.238,-0.985 -1.628,-1.971 -0.393,-0.988 -0.602,-2.239 -0.539,-3.482 0.061,-1.244 0.385,-2.233 0.86,-2.818 0.471,-0.58 1.097,-0.755 1.757,-0.411 0.659,0.343 1.232,1.128 1.624,2.11 0.391,0.973 0.606,2.145 0.545,3.302 -0.062,1.155 -0.388,2.095 -0.86,2.684 -0.474,0.594 -1.097,0.846 -1.759,0.586 M 15.237,3.486 C 14.285,3.44 13.456,2.686 12.895,1.481 12.328,0.264 12.028,-1.407 12.118,-3.192 c 0.089,-1.785 0.554,-3.331 1.237,-4.346 0.675,-1.006 1.575,-1.499 2.525,-1.274 0.948,0.225 1.769,1.098 2.337,2.293 0.561,1.184 0.871,2.704 0.785,4.316 -0.087,1.61 -0.553,3.037 -1.233,4.064 -0.683,1.034 -1.579,1.673 -2.532,1.625 m -16.626,7.16 C -1.87,10.611 -2.289,10.065 -2.571,9.197 -2.858,8.316 -3.01,7.109 -2.963,5.82 -2.918,4.529 -2.685,3.411 -2.34,2.679 -1.998,1.95 -1.545,1.594 -1.064,1.757 -0.586,1.921 -0.173,2.55 0.116,3.415 0.398,4.271 0.555,5.369 0.51,6.532 0.467,7.696 0.232,8.729 -0.111,9.47 c -0.345,0.747 -0.797,1.208 -1.278,1.176" />
      </g>
      <g
         transform="translate(371.593,90.7666)"
         id="g1320">
        <path
           inkscape:connector-curvature="0"
           id="path1322"
           style="fill:#e8e2d3;fill-opacity:1;fill-rule:evenodd;stroke:none"
           d="M 0,0 V 7.127 C -0.025,7.128 -0.048,7.129 -0.073,7.13 -4.152,7.298 -4.919,0.31 -0.783,-0.032 -0.507,-0.055 -0.246,-0.042 0,0" />
      </g>
      <g
         transform="translate(371.593,70.0146)"
         id="g1324">
        <path
           inkscape:connector-curvature="0"
           id="path1326"
           style="fill:#e8e2d3;fill-opacity:1;fill-rule:evenodd;stroke:none"
           d="M 0,0 V 16.035 C -5.913,13.961 -7.201,3.184 0,0" />
      </g>
    </g>
  </g>
</svg>
