<?xml version="1.0" encoding="UTF-8" standalone="no"?>
<!-- Created with Inkscape (http://www.inkscape.org/) -->

<svg
   xmlns:dc="http://purl.org/dc/elements/1.1/"
   xmlns:cc="http://creativecommons.org/ns#"
   xmlns:rdf="http://www.w3.org/1999/02/22-rdf-syntax-ns#"
   xmlns:svg="http://www.w3.org/2000/svg"
   xmlns="http://www.w3.org/2000/svg"
   xmlns:sodipodi="http://sodipodi.sourceforge.net/DTD/sodipodi-0.dtd"
   xmlns:inkscape="http://www.inkscape.org/namespaces/inkscape"
   version="1.1"
   id="svg2"
   xml:space="preserve"
   width="211.08546"
   height="182.90666"
   viewBox="0 0 211.08547 182.90666"
   sodipodi:docname="w0.svg"
   inkscape:version="0.92.3 (2405546, 2018-03-11)"><metadata
     id="metadata8"><rdf:RDF><cc:Work
         rdf:about=""><dc:format>image/svg+xml</dc:format><dc:type
           rdf:resource="http://purl.org/dc/dcmitype/StillImage" /><dc:title></dc:title></cc:Work></rdf:RDF></metadata><defs
     id="defs6"><clipPath
       clipPathUnits="userSpaceOnUse"
       id="clipPath48"><path
         d="M 0,500 H 500 V 0 H 0 Z"
         id="path46"
         inkscape:connector-curvature="0" /></clipPath><clipPath
       clipPathUnits="userSpaceOnUse"
       id="clipPath672"><path
         d="M 0,500 H 500 V 0 H 0 Z"
         id="path670"
         inkscape:connector-curvature="0" /></clipPath></defs><sodipodi:namedview
     pagecolor="#ffffff"
     bordercolor="#666666"
     borderopacity="1"
     objecttolerance="10"
     gridtolerance="10"
     guidetolerance="10"
     inkscape:pageopacity="0"
     inkscape:pageshadow="2"
     inkscape:window-width="1920"
     inkscape:window-height="1024"
     id="namedview4"
     showgrid="false"
     inkscape:zoom="1.0012632"
     inkscape:cx="236.5756"
     inkscape:cy="-155.63792"
     inkscape:window-x="0"
     inkscape:window-y="0"
     inkscape:window-maximized="1"
     inkscape:current-layer="g10" /><g
     id="g10"
     inkscape:groupmode="layer"
     inkscape:label="117763-OQ1XWG-78"
     transform="matrix(1.3333333,0,0,-1.3333333,-53.319865,598.72265)"><path
       d="m 189.825,340.041 h 8.268 v 8.015 h -8.268 z"
       style="fill:#3954a5;fill-opacity:1;fill-rule:evenodd;stroke:none"
       id="path498"
       inkscape:connector-curvature="0" /><path
       d="M 69.94,383.194 H 88.543 V 436.05 H 69.94 Z"
       style="fill:#aaca45;fill-opacity:1;fill-rule:evenodd;stroke:none"
       id="path500"
       inkscape:connector-curvature="0" /><path
       d="M 88.543,394.963 H 69.94 v 4.514 h 18.603 z m 0,8.648 H 69.94 v 4.514 h 18.603 z m 0,8.647 H 69.94 v 4.514 h 18.603 z m 0,8.648 H 69.94 v 4.514 h 18.603 z"
       style="fill:#679274;fill-opacity:1;fill-rule:evenodd;stroke:none"
       id="path502"
       inkscape:connector-curvature="0" /><path
       d="m 59.69,428.246 h 39.062 v 20.796 H 59.69 Z"
       style="fill:#d52742;fill-opacity:1;fill-rule:evenodd;stroke:none"
       id="path504"
       inkscape:connector-curvature="0" /><path
       d="m 50.958,404.033 h 13.414 v 10.04 H 50.958 Z"
       style="fill:#5cb0e0;fill-opacity:1;fill-rule:evenodd;stroke:none"
       id="path506"
       inkscape:connector-curvature="0" /><path
       d="M 55.429,385.641 H 59.9 v 20.839 h -4.471 z"
       style="fill:#5cb0e0;fill-opacity:1;fill-rule:evenodd;stroke:none"
       id="path508"
       inkscape:connector-curvature="0" /><g
       id="g510"
       transform="translate(46.8658,391.7574)"><path
         d="m 0,0 h 76.268 v 31.638 h 68.463 V 0 -11.896 -60.997 H 0 Z"
         style="fill:#74a96e;fill-opacity:1;fill-rule:evenodd;stroke:none"
         id="path512"
         inkscape:connector-curvature="0" /></g><g
       id="g514"
       transform="translate(157.1332,353.1595)"><path
         d="m 0,0 c 4.134,0 7.466,-3.332 7.466,-7.466 0,-4.092 -3.332,-7.425 -7.466,-7.425 -4.092,0 -7.424,3.333 -7.424,7.425 C -7.424,-3.332 -4.092,0 0,0 m -22.779,2.573 c 4.134,0 7.466,-3.332 7.466,-7.424 0,-4.134 -3.332,-7.467 -7.466,-7.467 -4.092,0 -7.424,3.333 -7.424,7.467 0,4.092 3.332,7.424 7.424,7.424 m 3.754,19.911 c 4.092,0 7.425,-3.333 7.425,-7.425 0,-4.133 -3.333,-7.466 -7.425,-7.466 -4.134,0 -7.466,3.333 -7.466,7.466 0,4.092 3.332,7.425 7.466,7.425 m 22.864,1.687 c 4.091,0 7.424,-3.332 7.424,-7.466 0,-4.092 -3.333,-7.425 -7.424,-7.425 -4.092,0 -7.425,3.333 -7.425,7.425 0,4.134 3.333,7.466 7.425,7.466 m 22.863,7.973 c 4.134,0 7.467,-3.333 7.467,-7.425 0,-4.133 -3.333,-7.424 -7.467,-7.424 -4.092,0 -7.424,3.291 -7.424,7.424 0,4.092 3.332,7.425 7.424,7.425 m -3.881,24.002 c 4.092,0 7.425,-3.332 7.425,-7.424 0,-4.134 -3.333,-7.467 -7.425,-7.467 -4.134,0 -7.466,3.333 -7.466,7.467 0,4.092 3.332,7.424 7.466,7.424 M -3.037,69.56 c 4.092,0 7.424,-3.332 7.424,-7.466 0,-4.092 -3.332,-7.424 -7.424,-7.424 -4.134,0 -7.467,3.332 -7.467,7.424 0,4.134 3.333,7.466 7.467,7.466 M -26.196,56.526 c 4.134,0 7.467,-3.333 7.467,-7.425 0,-4.134 -3.333,-7.466 -7.467,-7.466 -4.092,0 -7.424,3.332 -7.424,7.466 0,4.092 3.332,7.425 7.424,7.425 M -46.402,23.243 c 4.134,0 7.467,-3.332 7.467,-7.466 0,-4.092 -3.333,-7.425 -7.467,-7.425 -4.092,0 -7.424,3.333 -7.424,7.425 0,4.134 3.332,7.466 7.424,7.466 M -51.59,-0.042 c 4.091,0 7.424,-3.333 7.424,-7.424 0,-4.092 -3.333,-7.425 -7.424,-7.425 -4.134,0 -7.467,3.333 -7.467,7.425 0,4.091 3.333,7.424 7.467,7.424 m -18.983,17.337 c 4.134,0 7.424,-3.332 7.424,-7.466 0,-4.092 -3.29,-7.425 -7.424,-7.425 -4.092,0 -7.424,3.333 -7.424,7.425 0,4.134 3.332,7.466 7.424,7.466 M -90.272,29.36 c 4.091,0 7.424,-3.333 7.424,-7.425 0,-4.134 -3.333,-7.466 -7.424,-7.466 -4.134,0 -7.467,3.332 -7.467,7.466 0,4.092 3.333,7.425 7.467,7.425 M -93.816,5.568 c 4.092,0 7.424,-3.332 7.424,-7.466 0,-4.092 -3.332,-7.425 -7.424,-7.425 -4.134,0 -7.466,3.333 -7.466,7.425 0,4.134 3.332,7.466 7.466,7.466 m 58.973,33.03 H -34 v 0.084 h 0.085 c 4.091,0 7.424,-3.332 7.424,-7.466 0,-4.092 -3.333,-7.425 -7.424,-7.425 -4.134,0 -7.467,3.333 -7.467,7.425 0,3.796 2.869,6.918 6.539,7.382 m -31.638,0 h 5.948 c 2.615,-1.139 4.471,-3.754 4.471,-6.834 0,-4.092 -3.332,-7.424 -7.424,-7.424 -4.134,0 -7.466,3.332 -7.466,7.424 0,3.08 1.856,5.695 4.471,6.834 M 22.442,7.424 c 4.091,0 7.424,-3.332 7.424,-7.466 0,-4.092 -3.333,-7.424 -7.424,-7.424 -4.092,0 -7.425,3.332 -7.425,7.424 0,4.134 3.333,7.466 7.425,7.466"
         style="fill:#89bc60;fill-opacity:1;fill-rule:evenodd;stroke:none"
         id="path516"
         inkscape:connector-curvature="0" /></g><g
       id="g518"
       transform="translate(135.2822,408.5464)"><path
         d="m 0,0 h 43.027 c 1.392,0 2.531,-1.139 2.531,-2.489 v -20.754 c 0,-1.392 -1.139,-2.489 -2.531,-2.489 H 0 c -1.35,0 -2.489,1.097 -2.489,2.489 V -2.489 C -2.489,-1.139 -1.35,0 0,0"
         style="fill:#fefefe;fill-opacity:1;fill-rule:evenodd;stroke:none"
         id="path520"
         inkscape:connector-curvature="0" /></g><g
       id="g522"
       transform="translate(39.9899,390.9981)"><path
         d="M 0,0 9.28,6.918 V -65.637 L 0,-58.719 Z"
         style="fill:#3954a5;fill-opacity:1;fill-rule:evenodd;stroke:none"
         id="path524"
         inkscape:connector-curvature="0" /></g><g
       id="g526"
       transform="translate(70.9525,311.862)"><path
         d="m 0,0 c 9.955,0 18.055,8.099 18.055,18.055 0,9.955 -8.1,18.054 -18.055,18.054 -9.913,0 -18.055,-8.099 -18.055,-18.054 C -18.055,8.099 -9.913,0 0,0"
         style="fill:#d52742;fill-opacity:1;fill-rule:evenodd;stroke:none"
         id="path528"
         inkscape:connector-curvature="0" /></g><g
       id="g530"
       transform="translate(70.9525,317.4724)"><path
         d="M 0,0 C 6.876,0 12.486,5.568 12.486,12.444 12.486,19.32 6.876,24.888 0,24.888 -6.876,24.888 -12.444,19.32 -12.444,12.444 -12.444,5.568 -6.876,0 0,0"
         style="fill:#ceda29;fill-opacity:1;fill-rule:evenodd;stroke:none"
         id="path532"
         inkscape:connector-curvature="0" /></g><g
       id="g534"
       transform="translate(70.9525,324.3483)"><path
         d="m 0,0 c 3.079,0 5.568,2.489 5.568,5.568 0,3.08 -2.489,5.568 -5.568,5.568 -3.079,0 -5.568,-2.488 -5.568,-5.568 C -5.568,2.489 -3.079,0 0,0"
         style="fill:#5cb0e0;fill-opacity:1;fill-rule:evenodd;stroke:none"
         id="path536"
         inkscape:connector-curvature="0" /></g><g
       id="g538"
       transform="translate(120.3493,311.862)"><path
         d="m 0,0 c 9.955,0 18.055,8.099 18.055,18.055 0,9.955 -8.1,18.054 -18.055,18.054 -9.955,0 -18.054,-8.099 -18.054,-18.054 C -18.054,8.099 -9.955,0 0,0"
         style="fill:#d52742;fill-opacity:1;fill-rule:evenodd;stroke:none"
         id="path540"
         inkscape:connector-curvature="0" /></g><g
       id="g542"
       transform="translate(169.746,311.862)"><path
         d="M 0,0 C 9.913,0 18.012,8.099 18.012,18.055 18.012,28.01 9.913,36.109 0,36.109 -9.955,36.109 -18.054,28.01 -18.054,18.055 -18.054,8.099 -9.955,0 0,0"
         style="fill:#d52742;fill-opacity:1;fill-rule:evenodd;stroke:none"
         id="path544"
         inkscape:connector-curvature="0" /></g><g
       id="g546"
       transform="translate(120.3493,317.4724)"><path
         d="M 0,0 C 6.876,0 12.444,5.568 12.444,12.444 12.444,19.32 6.876,24.888 0,24.888 -6.876,24.888 -12.486,19.32 -12.486,12.444 -12.486,5.568 -6.876,0 0,0"
         style="fill:#ceda29;fill-opacity:1;fill-rule:evenodd;stroke:none"
         id="path548"
         inkscape:connector-curvature="0" /></g><g
       id="g550"
       transform="translate(169.746,317.4724)"><path
         d="M 0,0 C 6.834,0 12.444,5.568 12.444,12.444 12.444,19.32 6.834,24.888 0,24.888 -6.876,24.888 -12.486,19.32 -12.486,12.444 -12.486,5.568 -6.876,0 0,0"
         style="fill:#ceda29;fill-opacity:1;fill-rule:evenodd;stroke:none"
         id="path552"
         inkscape:connector-curvature="0" /></g><g
       id="g554"
       transform="translate(120.3493,324.3483)"><path
         d="m 0,0 c 3.079,0 5.568,2.489 5.568,5.568 0,3.08 -2.489,5.568 -5.568,5.568 -3.079,0 -5.568,-2.488 -5.568,-5.568 C -5.568,2.489 -3.079,0 0,0"
         style="fill:#5cb0e0;fill-opacity:1;fill-rule:evenodd;stroke:none"
         id="path556"
         inkscape:connector-curvature="0" /></g><g
       id="g558"
       transform="translate(169.746,324.3483)"><path
         d="m 0,0 c 3.079,0 5.568,2.489 5.568,5.568 0,3.08 -2.489,5.568 -5.568,5.568 -3.079,0 -5.61,-2.488 -5.61,-5.568 C -5.61,2.489 -3.079,0 0,0"
         style="fill:#5cb0e0;fill-opacity:1;fill-rule:evenodd;stroke:none"
         id="path560"
         inkscape:connector-curvature="0" /></g><path
       d="m 115.329,418.923 h 82.975 v 13.414 h -82.975 z"
       style="fill:#3954a5;fill-opacity:1;fill-rule:evenodd;stroke:none"
       id="path628"
       inkscape:connector-curvature="0" /></g></svg>