<?xml version="1.0" encoding="UTF-8" standalone="no"?>
<!-- Created with Inkscape (http://www.inkscape.org/) -->

<svg
   xmlns:dc="http://purl.org/dc/elements/1.1/"
   xmlns:cc="http://creativecommons.org/ns#"
   xmlns:rdf="http://www.w3.org/1999/02/22-rdf-syntax-ns#"
   xmlns:svg="http://www.w3.org/2000/svg"
   xmlns="http://www.w3.org/2000/svg"
   xmlns:xlink="http://www.w3.org/1999/xlink"
   xmlns:sodipodi="http://sodipodi.sourceforge.net/DTD/sodipodi-0.dtd"
   xmlns:inkscape="http://www.inkscape.org/namespaces/inkscape"
   version="1.1"
   id="svg2"
   xml:space="preserve"
   width="185.38133"
   height="102.30933"
   viewBox="0 0 185.38133 102.30934"
   sodipodi:docname="w1.svg"
   inkscape:version="0.92.3 (2405546, 2018-03-11)"><metadata
     id="metadata8"><rdf:RDF><cc:Work
         rdf:about=""><dc:format>image/svg+xml</dc:format><dc:type
           rdf:resource="http://purl.org/dc/dcmitype/StillImage" /><dc:title /></cc:Work></rdf:RDF></metadata><defs
     id="defs6"><linearGradient
       inkscape:collect="always"
       id="linearGradient2234"><stop
         style="stop-color:#000000;stop-opacity:1;"
         offset="0"
         id="stop2230" /><stop
         style="stop-color:#000000;stop-opacity:0;"
         offset="1"
         id="stop2232" /></linearGradient><clipPath
       clipPathUnits="userSpaceOnUse"
       id="clipPath48"><path
         d="M 0,500 H 500 V 0 H 0 Z"
         id="path46"
         inkscape:connector-curvature="0" /></clipPath><clipPath
       clipPathUnits="userSpaceOnUse"
       id="clipPath672"><path
         d="M 0,500 H 500 V 0 H 0 Z"
         id="path670"
         inkscape:connector-curvature="0" /></clipPath><radialGradient
       inkscape:collect="always"
       xlink:href="#linearGradient2234"
       id="radialGradient2240"
       cx="139.24748"
       cy="-132.20404"
       fx="139.24748"
       fy="-132.20404"
       r="9.0527344"
       gradientTransform="matrix(1,0,0,1.5038835,0,66.615434)"
       gradientUnits="userSpaceOnUse" /></defs><sodipodi:namedview
     pagecolor="#ffffff"
     bordercolor="#666666"
     borderopacity="1"
     objecttolerance="10"
     gridtolerance="10"
     guidetolerance="10"
     inkscape:pageopacity="0"
     inkscape:pageshadow="2"
     inkscape:window-width="1920"
     inkscape:window-height="1024"
     id="namedview4"
     showgrid="false"
     inkscape:zoom="1.0012632"
     inkscape:cx="-275.26564"
     inkscape:cy="147.23732"
     inkscape:window-x="0"
     inkscape:window-y="0"
     inkscape:window-maximized="1"
     inkscape:current-layer="g10" /><g
     id="g10"
     inkscape:groupmode="layer"
     inkscape:label="117763-OQ1XWG-78"
     transform="matrix(1.3333333,0,0,-1.3333333,-262.04399,518.12532)"><g
   id="g330"><path
     inkscape:connector-curvature="0"
     id="path494"
     style="fill:#3954a5;fill-opacity:1;fill-rule:evenodd;stroke:none"
     d="m 327.301,340.041 h 8.268 v 8.015 h -8.268 z" /><path
     inkscape:connector-curvature="0"
     id="path496"
     style="fill:#d52742;fill-opacity:1;fill-rule:evenodd;stroke:none"
     d="m 196.533,342.656 h 25.858 v 2.784 h -25.858 z" /><path
     inkscape:connector-curvature="0"
     id="path562"
     style="fill:#3954a5;fill-opacity:1;fill-rule:evenodd;stroke:none"
     d="m 218.848,340.041 h 8.268 v 8.015 h -8.268 z" /><path
     inkscape:connector-curvature="0"
     id="path564"
     style="fill:#dccd1f;fill-opacity:1;fill-rule:evenodd;stroke:none"
     d="m 224.416,330.929 h 103.982 v 53.573 H 224.416 Z" /><path
     inkscape:connector-curvature="0"
     id="path568"
     style="fill:#3954a5;fill-opacity:1;fill-rule:evenodd;stroke:none"
     d="m 219.86,382.266 h 113.094 v 6.328 H 219.86 Z" /><g
     transform="translate(254.9144,311.862)"
     id="g570"><path
       inkscape:connector-curvature="0"
       id="path572"
       style="fill:#44ade3;fill-opacity:1;fill-rule:evenodd;stroke:none"
       d="M 0,0 C 9.955,0 18.054,8.099 18.054,18.055 18.054,28.01 9.955,36.109 0,36.109 -9.913,36.109 -18.012,28.01 -18.012,18.055 -18.012,8.099 -9.913,0 0,0" /></g><g
     transform="translate(254.9144,317.4724)"
     id="g574"><path
       inkscape:connector-curvature="0"
       id="path576"
       style="fill:#a9cf9e;fill-opacity:1;fill-rule:evenodd;stroke:none"
       d="M 0,0 C 6.876,0 12.486,5.568 12.486,12.444 12.486,19.32 6.876,24.888 0,24.888 -6.834,24.888 -12.444,19.32 -12.444,12.444 -12.444,5.568 -6.834,0 0,0" /></g><g
     transform="translate(254.9144,324.3483)"
     id="g578"><path
       inkscape:connector-curvature="0"
       id="path580"
       style="fill:#f06ba8;fill-opacity:1;fill-rule:evenodd;stroke:none"
       d="m 0,0 c 3.079,0 5.61,2.489 5.61,5.568 0,3.08 -2.531,5.568 -5.61,5.568 -3.079,0 -5.568,-2.488 -5.568,-5.568 C -5.568,2.489 -3.079,0 0,0" /></g><g
     transform="translate(305.5345,311.862)"
     id="g582"><path
       inkscape:connector-curvature="0"
       id="path584"
       style="fill:#44ade3;fill-opacity:1;fill-rule:evenodd;stroke:none"
       d="M 0,0 C 9.913,0 18.055,8.099 18.055,18.055 18.055,28.01 9.913,36.109 0,36.109 -9.955,36.109 -18.055,28.01 -18.055,18.055 -18.055,8.099 -9.955,0 0,0" /></g><g
     transform="translate(305.5345,317.4724)"
     id="g586"><path
       inkscape:connector-curvature="0"
       id="path588"
       style="fill:#a9cf9e;fill-opacity:1;fill-rule:evenodd;stroke:none"
       d="M 0,0 C 6.876,0 12.444,5.568 12.444,12.444 12.444,19.32 6.876,24.888 0,24.888 -6.876,24.888 -12.486,19.32 -12.486,12.444 -12.486,5.568 -6.876,0 0,0" /></g><g
     transform="translate(305.5345,324.3483)"
     id="g590"><path
       inkscape:connector-curvature="0"
       id="path592"
       style="fill:#f06ba8;fill-opacity:1;fill-rule:evenodd;stroke:none"
       d="m 0,0 c 3.079,0 5.568,2.489 5.568,5.568 0,3.08 -2.489,5.568 -5.568,5.568 -3.079,0 -5.568,-2.488 -5.568,-5.568 C -5.568,2.489 -3.079,0 0,0" /></g></g>
<text
   xml:space="preserve"
   style="font-style:normal;font-weight:normal;font-size:48px;line-height:125%;font-family:'Bitstream Vera Sans';letter-spacing:0px;word-spacing:0px;fill:#ffffff;fill-opacity:1;stroke:#000050;stroke-width:0.75;stroke-linecap:round;stroke-linejoin:round;stroke-miterlimit:4;stroke-dasharray:none;stroke-opacity:1"
   x="280.64084"
   y="-343.2319"
   id="text1417"
   transform="scale(1,-1)"><tspan
     sodipodi:role="line"
     id="tspan1415"
     x="280.64084"
     y="-343.2319"
     style="font-size:48px;text-align:center;text-anchor:middle;fill:#ffffff;fill-opacity:1;stroke:#000050;stroke-width:0.75;stroke-linecap:round;stroke-linejoin:round;stroke-miterlimit:4;stroke-dasharray:none;stroke-opacity:1">6</tspan></text>

</g></svg>
